<?xml version="1.0" encoding="UTF-8" standalone="no"?>
<svg width="572px" height="61px" viewBox="0 0 572 61" version="1.1" xmlns="http://www.w3.org/2000/svg" xmlns:xlink="http://www.w3.org/1999/xlink">
    <!-- Generator: Sketch 39.1 (31720) - http://www.bohemiancoding.com/sketch -->
    <title>Group</title>
    <desc>Created with Sketch.</desc>
    <defs></defs>
    <g id="Page-1" stroke="none" stroke-width="1" fill="none" fill-rule="evenodd">
        <g id="Group" transform="translate(0.000000, 1.000000)">
            <g id="Layer0_0_MEMBER_0_FILL-link" fill="#DDDDDD">
                <g id="Layer0_0_MEMBER_0_FILL">
                    <path d="M38.9,29.2 L38.9,59.4 L55.4,59.4 L55.4,29.2 L38.9,29.2 L38.9,29.2 Z M40.5,32.15 L46.9,32.15 L46.9,31.45 L46.9,32.15 L53.6,32.15 L53.6,38.1 L53.6,44.15 L54.45,44.15 L53.6,44.15 L53.6,50.4 L46.9,50.4 L46.9,51.65 L46.9,50.4 L40.5,50.4 L40.5,44.15 L39.75,44.15 L40.5,44.15 L40.5,38.1 L39.75,38.1 L40.5,38.1 L40.5,32.15 L40.5,32.15 Z M43.35,58.8 L43.35,52.75 L51.55,52.75 L51.55,58.8 L43.35,58.8 L43.35,58.8 Z M16.25,23.95 L6.1,23.95 L6.1,24.65 L4.1,24.65 L2.45,24.65 L2.45,25.35 L0,25.35 L0,59.4 L18.55,59.4 L18.55,25.35 L16.25,25.35 L16.25,23.95 L16.25,23.95 Z M16.9,27.3 L16.9,29.85 L9.1,29.85 L1.3,29.85 L1.3,27.3 L9.1,27.3 L16.9,27.3 L16.9,27.3 Z M1.75,35.2 L9.15,35.2 L16.55,35.2 L16.55,39.85 L16.55,44.55 L16.55,49.25 L16.55,54.25 L9.15,54.25 L1.75,54.25 L1.75,49.25 L1.75,44.55 L1.75,39.85 L1.75,35.2 L1.75,35.2 Z M36.9,10.35 L20.7,19.95 L20.7,59.4 L36.9,59.4 L36.9,10.35 L36.9,10.35 Z M23.35,21.2 L22.8,21.2 L23.35,21.2 L23.35,19.95 L28.8,19.95 L34.55,19.95 L34.55,21.2 L35.15,21.2 L34.55,21.2 L34.55,22.35 L35.15,22.35 L34.55,22.35 L34.55,23.5 L35.15,23.5 L34.55,23.5 L34.55,24.7 L35.15,24.7 L34.55,24.7 L34.55,25.85 L35.15,25.85 L34.55,25.85 L34.55,26.95 L35.15,26.95 L34.55,26.95 L34.55,28.1 L35.15,28.1 L34.55,28.1 L34.55,29.3 L35.15,29.3 L34.55,29.3 L28.8,29.3 L23.35,29.3 L22.85,29.4 L23.35,29.3 L23.35,28.1 L22.8,28.1 L23.35,28.1 L23.35,26.95 L22.8,26.95 L23.35,26.95 L23.35,25.85 L22.8,25.85 L23.35,25.85 L23.35,24.7 L22.8,24.7 L23.35,24.7 L23.35,23.5 L22.8,23.5 L23.35,23.5 L23.35,22.35 L22.8,22.35 L23.35,22.35 L23.35,21.2 L23.35,21.2 Z M34.55,32.15 L34.55,33.25 L35.15,33.25 L34.55,33.25 L34.55,34.45 L35.15,34.45 L34.55,34.45 L34.55,35.6 L35.15,35.65 L34.55,35.6 L34.55,36.8 L35.15,36.8 L34.55,36.8 L34.55,37.9 L35.15,37.9 L34.55,37.9 L34.55,39.05 L35.15,39.05 L34.55,39.05 L34.55,40.25 L35.15,40.25 L34.55,40.25 L28.8,40.25 L23.35,40.25 L22.85,40.15 L23.35,40.25 L23.35,39.05 L22.8,39.05 L23.35,39.05 L23.35,37.9 L22.8,37.9 L23.35,37.9 L23.35,36.8 L22.8,36.8 L23.35,36.8 L23.35,35.6 L22.8,35.65 L23.35,35.6 L23.35,34.45 L22.8,34.45 L23.35,34.45 L23.35,33.25 L22.8,33.25 L23.35,33.25 L23.35,32.15 L22.8,32.15 L23.35,32.15 L23.35,30.9 L28.8,30.9 L34.55,30.9 L34.55,32.15 L35.15,32.15 L34.55,32.15 L34.55,32.15 Z M23.35,43.2 L22.8,43.2 L23.35,43.2 L23.35,41.95 L28.8,41.95 L34.55,41.95 L34.55,43.2 L35.15,43.2 L34.55,43.2 L34.55,44.3 L35.15,44.3 L34.55,44.3 L34.55,45.5 L35.15,45.5 L34.55,45.5 L34.55,46.65 L35.15,46.65 L34.55,46.65 L34.55,47.85 L35.15,47.85 L34.55,47.85 L34.55,48.95 L35.15,48.95 L34.55,48.95 L34.55,50.05 L35.15,50.05 L34.55,50.05 L34.55,51.25 L35.15,51.25 L34.55,51.25 L28.8,51.25 L23.35,51.25 L22.85,51.2 L23.35,51.25 L23.35,50.05 L22.8,50.05 L23.35,50.05 L23.35,48.95 L22.8,48.95 L23.35,48.95 L23.35,47.85 L22.8,47.85 L23.35,47.85 L23.35,46.65 L22.8,46.65 L23.35,46.65 L23.35,45.5 L22.8,45.5 L23.35,45.5 L23.35,44.3 L22.8,44.3 L23.35,44.3 L23.35,43.2 L23.35,43.2 Z M34.55,52.85 L34.55,54.05 L35.15,54.05 L34.55,54.05 L34.55,55.15 L35.15,55.15 L34.55,55.15 L34.55,56.3 L35.15,56.3 L34.55,56.3 L34.55,57.45 L35.15,57.45 L34.55,57.45 L28.8,57.45 L23.35,57.45 L22.85,57.65 L23.35,57.45 L23.35,56.3 L22.8,56.3 L23.35,56.3 L23.35,55.15 L22.8,55.15 L23.35,55.15 L23.35,54.05 L22.8,54.05 L23.35,54.05 L23.35,52.85 L22.8,52.85 L23.35,52.85 L28.8,52.85 L34.55,52.85 L35.15,52.85 L34.55,52.85 L34.55,52.85 Z M56.3,28.45 L56.3,26.3 L37.8,26.3 L37.8,28.45 L56.3,28.45 L56.3,28.45 Z M125.15,58.15 L126.15,58.2 L125.65,58.15 L125.15,58.15 L125.15,58.15 Z M109.7,58.1 L110.8,58.15 L110.25,58.1 L109.7,58.1 L109.7,58.1 Z M102.7,58.1 L102.2,58.05 L101.75,58.05 L102.7,58.1 L102.7,58.1 Z M129.85,41.65 L129.85,37.75 L126.5,37.75 L126.5,41.65 L129.85,41.65 L129.85,41.65 Z M129.85,34.25 L126.5,34.25 L126.5,37.75 L129.85,37.75 L129.85,34.25 L129.85,34.25 Z M133.8,33.15 L133.8,24.85 L98.4,24.85 L98.4,26.5 L58.7,26.5 L58.7,59.4 L99.85,59.4 L99.85,58.05 L101.25,58.05 L101.75,58.05 L102.2,58.05 L102.2,51.95 L102.2,50 L106,50 L110.25,50 L114.05,50 L117.8,50 L121.8,50 L125.65,50 L129.55,50 L129.55,51.95 L132.45,51.95 L129.55,51.95 L129.55,58.25 L130.7,58.25 L131.15,58.25 L132.7,58.25 L132.7,49.95 L133.8,49.95 L133.8,41.65 L129.85,41.65 L126.5,41.65 L122.75,41.65 L119,41.65 L115.25,41.65 L111.55,41.65 L107.8,41.65 L104.05,41.65 L100.3,41.65 L99.85,41.65 L100.3,41.65 L100.3,37.75 L96.55,37.75 L96.55,38.4 L61.65,38.4 L61.65,36.35 L96.55,36.35 L96.55,37.75 L100.3,37.75 L100.3,34.25 L96.55,34.25 L96.55,34.65 L61.65,34.65 L61.65,32.6 L98.35,32.6 L98.35,33.2 L99,33.2 L99,33.55 L99.85,33.55 L99.85,33.2 L129.7,33.2 L129.7,33.15 L133.8,33.15 L133.8,33.15 Z M131.2,26.85 L131.2,29.55 L131.2,32.2 L101.1,32.2 L101.1,29.55 L101.1,26.85 L131.2,26.85 L131.2,26.85 Z M131.2,46.4 L131.2,49 L101.1,49 L101.1,46.4 L101.1,43.65 L131.2,43.65 L131.2,46.4 L131.2,46.4 Z M98.4,28.8 L98.4,30.9 L61.65,30.9 L61.65,28.8 L98.4,28.8 L98.4,28.8 Z M96.55,40.1 L96.55,41.65 L98.4,41.65 L98.4,42.2 L61.65,42.2 L61.65,40.1 L96.55,40.1 L96.55,40.1 Z M98.4,47.65 L98.4,49.35 L98.35,49.35 L98.35,49.75 L61.65,49.75 L61.65,47.65 L98.4,47.65 L98.4,47.65 Z M98.4,43.9 L98.4,45.95 L61.65,45.95 L61.65,43.9 L98.4,43.9 L98.4,43.9 Z M98.45,51.35 L98.45,53.45 L61.65,53.45 L61.65,51.35 L98.45,51.35 L98.45,51.35 Z M98.45,55.15 L98.45,57.2 L61.65,57.2 L61.65,55.15 L98.45,55.15 L98.45,55.15 Z M131.2,46.4 L131.2,43.65 L101.1,43.65 L101.1,46.4 L131.2,46.4 L131.2,46.4 Z M131.2,49 L131.2,46.4 L101.1,46.4 L101.1,49 L131.2,49 L131.2,49 Z M131.2,32.2 L131.2,29.55 L101.1,29.55 L101.1,32.2 L131.2,32.2 L131.2,32.2 Z M131.2,29.55 L131.2,26.85 L101.1,26.85 L101.1,29.55 L131.2,29.55 L131.2,29.55 Z M100.3,20.95 L96.55,20.95 L96.55,24.8 L100.3,24.8 L100.3,20.95 L100.3,20.95 Z M96.55,17.4 L96.55,20.95 L100.3,20.95 L100.3,17.4 L96.55,17.4 L96.55,17.4 Z M126.5,20.95 L129.85,20.95 L129.85,17.4 L126.5,17.4 L126.5,20.95 L126.5,20.95 Z M129.85,20.95 L126.5,20.95 L126.5,24.8 L129.85,24.8 L129.85,20.95 L129.85,20.95 Z M129.7,16.25 L129.7,16.2 L133.8,16.2 L133.8,7.9 L98.4,7.9 L98.4,15.6 L98.35,15.6 L98.35,16.25 L129.7,16.25 L129.7,16.25 Z M131.2,12.6 L131.2,15.25 L101.1,15.25 L101.1,12.6 L101.1,9.9 L131.2,9.9 L131.2,12.6 L131.2,12.6 Z M131.2,12.6 L131.2,9.9 L101.1,9.9 L101.1,12.6 L131.2,12.6 L131.2,12.6 Z M131.2,15.25 L131.2,12.6 L101.1,12.6 L101.1,15.25 L131.2,15.25 L131.2,15.25 Z M96.55,4 L100.3,4 L100.3,0.45 L96.55,0.45 L96.55,4 L96.55,4 Z M96.55,4 L96.55,7.85 L100.3,7.85 L100.3,4 L96.55,4 L96.55,4 Z M129.85,4 L126.5,4 L126.5,7.85 L129.85,7.85 L129.85,4 L129.85,4 Z M129.85,4 L129.85,0.45 L126.5,0.45 L126.5,4 L129.85,4 L129.85,4 Z M145.1,37 L142.55,37 L142.55,40.8 L145.1,40.8 L145.1,37 L145.1,37 Z M142.55,33.25 L142.55,37 L145.1,37 L145.1,33.25 L142.55,33.25 L142.55,33.25 Z M145.1,29.5 L142.55,29.5 L142.55,33.25 L145.1,33.25 L145.1,29.5 L145.1,29.5 Z M145.1,27.6 L142.55,27.6 L142.55,29.5 L145.1,29.5 L145.1,27.6 L145.1,27.6 Z M161.2,37 L160.1,37 L160.1,40.8 L161.2,40.8 L161.2,37 L161.2,37 Z M160.1,33.25 L160.1,37 L161.2,37 L161.2,33.25 L160.1,33.25 L160.1,33.25 Z M152.8,29.5 L152.8,27.6 L145.1,27.6 L145.1,29.5 L152.8,29.5 L152.8,29.5 Z M160.1,29.5 L160.1,27.6 L152.8,27.6 L152.8,29.5 L160.1,29.5 L160.1,29.5 Z M161.2,29.5 L160.1,29.5 L160.1,33.25 L161.2,33.25 L161.2,29.5 L161.2,29.5 Z M161.2,29.5 L161.2,27.6 L160.1,27.6 L160.1,29.5 L161.2,29.5 L161.2,29.5 Z M138.6,27.6 L138.6,29.5 L142.55,29.5 L142.55,27.6 L138.6,27.6 L138.6,27.6 Z M161.2,23.85 L160.1,23.85 L160.1,27.6 L161.2,27.6 L161.2,23.85 L161.2,23.85 Z M161.2,20.05 L160.1,20.05 L160.1,23.85 L161.2,23.85 L161.2,20.05 L161.2,20.05 Z M161.2,16.3 L160.1,16.3 L160.1,20.05 L161.2,20.05 L161.2,16.3 L161.2,16.3 Z M145.1,23.85 L142.55,23.85 L142.55,27.6 L145.1,27.6 L145.1,23.85 L145.1,23.85 Z M142.55,20.05 L142.55,23.85 L145.1,23.85 L145.1,20.05 L142.55,20.05 L142.55,20.05 Z M145.1,16.3 L142.55,16.3 L142.55,20.05 L145.1,20.05 L145.1,16.3 L145.1,16.3 Z M142.55,12.8 L142.55,16.3 L145.1,16.3 L145.1,12.8 L152.8,12.8 L152.8,11.85 L152.8,12.8 L160.1,12.8 L160.1,16.3 L161.2,16.3 L161.2,8.65 L137.35,8.65 L137.35,48.05 L161.2,48.05 L161.2,40.8 L160.1,40.8 L160.1,44.4 L160.1,44.9 L160.1,44.4 L152.8,44.4 L152.8,46.6 L152.8,44.4 L145.1,44.4 L145.1,44.9 L145.1,44.4 L145.1,40.8 L142.55,40.8 L142.55,44.9 L142.55,45.35 L142.55,44.9 L138.6,44.9 L138.6,45.35 L138.6,44.9 L138.6,40.8 L138.15,40.8 L138.6,40.8 L138.6,37 L138.15,37 L138.6,37 L138.6,33.25 L138.15,33.25 L138.6,33.25 L138.6,29.5 L138.15,29.5 L138.6,29.5 L138.6,27.6 L138.15,27.6 L138.6,27.6 L138.6,23.85 L138.15,23.85 L138.6,23.85 L138.6,20.05 L138.15,20.05 L138.6,20.05 L138.6,16.3 L138.15,16.3 L138.6,16.3 L138.6,12.8 L142.55,12.8 L142.55,12.8 Z M157.55,4.65 C157.216667,4.28333333 156.816667,3.93333333 156.35,3.6 C154.483333,2.3 152.25,1.65 149.65,1.65 C147.016667,1.65 144.766667,2.3 142.9,3.6 C142.533333,3.86666667 142.216667,4.13333333 141.95,4.4 C141.85,4.46666667 141.766667,4.55 141.7,4.65 C141.5,4.81666667 141.35,5 141.25,5.2 C141.016667,5.46666667 140.816667,5.75 140.65,6.05 L158.6,6.05 C158.333333,5.55 157.983333,5.08333333 157.55,4.65 L157.55,4.65 Z M163.35,58.85 L163.35,49.15 L135.1,49.15 L135.1,58.85 L163.35,58.85 L163.35,58.85 Z M160.45,51.5 L160.45,54.65 L157.2,54.65 L157.2,51.5 L160.45,51.5 L160.45,51.5 Z M156.7,54.65 L153.45,54.65 L153.45,51.5 L156.7,51.5 L156.7,54.65 L156.7,54.65 Z M152.15,50.3 L152.15,58.3 L146.8,58.3 L146.8,50.3 L152.15,50.3 L152.15,50.3 Z M142.15,54.65 L142.15,51.5 L145.45,51.5 L145.45,54.65 L142.15,54.65 L142.15,54.65 Z M138.4,54.65 L138.4,51.5 L141.7,51.5 L141.7,54.65 L138.4,54.65 L138.4,54.65 Z M172.35,42.35 L180.35,42.35 L188.05,42.35 L188.85,42.35 L188.85,10.25 L171.25,10.25 L171.25,42.35 L172.35,42.35 L172.35,42.35 Z M187.15,13.4 L187.15,19.7 L187.95,19.7 L187.15,19.7 L187.15,26.15 L187.95,26.15 L187.15,26.15 L187.15,32.8 L180.3,32.8 L180.3,34.1 L180.3,32.8 L173.15,32.8 L173.15,26.15 L172.25,26.15 L173.15,26.15 L173.15,19.7 L173.15,13.4 L180.3,13.4 L180.3,12.65 L180.3,13.4 L187.15,13.4 L187.15,13.4 Z M175.35,41.7 L175.35,35.25 L184.1,35.25 L184.1,41.7 L175.35,41.7 L175.35,41.7 Z M180.35,42.6 L180.35,42.35 L172.35,42.35 L172.35,42.6 L180.35,42.6 L180.35,42.6 Z M180.35,42.35 L180.35,42.6 L188.05,42.6 L188.05,42.35 L180.35,42.35 L180.35,42.35 Z M165.3,45.75 L165.3,42.6 L172.35,42.6 L172.35,42.35 L171.25,42.35 L163.45,42.35 L163.45,58.85 L196.05,58.85 L196.05,42.35 L188.85,42.35 L188.05,42.35 L188.05,42.6 L194.5,42.6 L194.5,45.6 L195.1,45.6 L194.5,45.6 L194.5,45.75 L194.5,48.75 L195,48.75 L194.5,48.75 L194.5,51.85 L194.5,52.15 L195.15,52.15 L194.5,52.15 L194.5,54.8 L188.05,54.8 L180.35,54.8 L180.35,55.1 L180.35,54.8 L172.35,54.8 L172.35,55.1 L172.35,54.8 L165.3,54.8 L165.3,51.85 L165.3,48.75 L165.3,45.75 L165.3,45.75 Z M163.05,8.05 L163.05,6.65 L135.35,6.65 L135.35,8.05 L163.05,8.05 L163.05,8.05 Z M190.05,9.5 L190.05,7.2 L170.3,7.2 L170.3,9.5 L190.05,9.5 L190.05,9.5 Z M206.1,33.3 L206.1,34.7 L239,34.7 L239,33.3 L206.1,33.3 L206.1,33.3 Z M209.55,35.7 L209.55,39.05 L236.2,39.05 L236.2,35.7 L209.55,35.7 L209.55,35.7 Z M247,59.4 L247,39.95 L197.65,39.95 L197.65,59.4 L247,59.4 L247,59.4 Z M244.65,42.9 L244.65,46.85 L245.55,46.85 L244.65,46.85 L244.65,46.95 L244.65,50.9 L245.4,50.9 L244.65,50.9 L244.65,54.95 L244.65,55.35 L245.65,55.35 L244.65,55.35 L244.65,58.85 L234.9,58.85 L211.1,58.85 L200.35,58.85 L200.35,55.35 L199.5,55.35 L200.35,55.35 L200.35,54.95 L200.35,50.9 L199.9,50.9 L200.35,50.9 L200.35,46.95 L200.35,46.85 L199.45,46.85 L200.35,46.85 L200.35,42.9 L211.1,42.9 L211.1,42.15 L211.1,42.9 L223.25,42.9 L223.25,42.3 L223.25,42.9 L234.9,42.9 L234.9,42.45 L234.9,42.9 L244.65,42.9 L244.65,42.9 Z M234.9,46.95 L223.25,46.95 L211.1,46.95 L211.1,50.9 L211.1,54.95 L211.1,58.85 L234.9,58.85 L234.9,54.95 L234.9,50.9 L234.9,46.95 L234.9,46.95 Z M218.05,49 L227.8,49 L227.8,58.55 L218.05,58.55 L218.05,49 L218.05,49 Z M289.55,24.3 L289.55,14 L267.75,14 L267.75,0.05 L249.65,8.25 L248.95,59.15 L267.75,59.15 L290.1,59.15 L308.9,59.15 L308.25,13.15 L290.1,5.7 L290.1,25.35 L287.85,25.35 L287.85,24.3 L289.55,24.3 L289.55,24.3 Z M306.5,13.7 L307.5,14.15 L306.5,13.7 L291.85,13.7 L291.85,12.15 L303.1,12.2 L301.75,11.65 L291.85,11.65 L291.85,10.1 L298.4,10.15 L296.95,9.55 L291.85,9.45 L291.85,7.45 L295.1,8.75 L291.15,6.95 L295.1,8.75 L296.95,9.55 L298.4,10.15 L301.75,11.65 L303.1,12.2 L306.5,13.7 L306.5,13.7 Z M306.55,16.7 L306.55,18.2 L291.85,18.2 L291.85,16.7 L306.55,16.7 L306.55,16.7 Z M306.55,19.15 L306.55,20.65 L291.85,20.65 L291.85,19.15 L306.55,19.15 L306.55,19.15 Z M306.55,14.5 L306.55,16 L291.85,16 L291.85,14.5 L306.55,14.5 L306.55,14.5 Z M306.55,21.35 L306.55,22.9 L291.85,22.9 L291.85,21.35 L306.55,21.35 L306.55,21.35 Z M288.4,15.55 L288.4,17.6 L288.85,17.6 L288.4,17.6 L288.4,17.7 L288.4,19.8 L288.75,19.8 L288.4,19.8 L288.4,21.9 L288.4,22.15 L288.9,22.15 L288.4,22.15 L288.4,24 L283.6,24 L277.85,24 L277.85,24.3 L277.85,24 L271.9,24 L271.9,24.3 L271.9,24 L267.75,24 L266.6,24 L266.6,22.15 L266.2,22.15 L266.6,22.15 L266.6,21.9 L266.6,19.8 L266.35,19.8 L266.6,19.8 L266.6,17.7 L266.6,17.6 L266.15,17.6 L266.6,17.6 L266.6,15.55 L267.75,15.55 L271.9,15.55 L271.9,15.2 L271.9,15.55 L277.85,15.55 L277.85,15.25 L277.85,15.55 L283.6,15.55 L288.4,15.55 L288.4,15.55 Z M292.55,27.55 L292.55,28.45 L306.55,28.45 L306.55,29.95 L292.55,29.95 L292.55,30.7 L306.55,30.7 L306.55,32.25 L292.55,32.25 L292.55,32.7 L292.55,33.1 L306.55,33.1 L306.55,34.65 L292.55,34.65 L292.55,35.35 L306.55,35.35 L306.55,36.85 L292.55,36.85 L292.55,37.75 L306.55,37.75 L306.55,39.25 L292.55,39.25 L292.55,39.45 L292.55,40 L306.55,40 L306.55,41.5 L292.55,41.5 L292.55,42.4 L306.55,42.4 L306.55,43.9 L292.55,43.9 L292.55,44.45 L292.55,44.7 L306.55,44.7 L306.55,46.2 L292.55,46.2 L292.55,47.1 L306.55,47.1 L306.55,48.6 L292.55,48.6 L292.55,49.35 L306.55,49.35 L306.55,50.85 L292.55,50.85 L292.55,51.2 L292.55,51.95 L306.55,51.95 L306.55,53.5 L293.35,53.5 L293.35,52.95 L291.85,52.95 L291.85,52.9 L290.1,52.9 L290.1,52.95 L267.75,52.95 L267.75,52.9 L262.45,52.9 L251.3,52.9 L251.3,51.2 L262.45,51.2 L262.45,49.95 L251.3,49.95 L251.3,48.3 L262.45,48.3 L262.45,47.8 L262.45,47.5 L251.3,47.5 L251.3,45.8 L262.45,45.8 L262.45,44.8 L251.3,44.8 L251.3,43.15 L262.45,43.15 L262.45,42.8 L262.45,42.35 L251.3,42.35 L251.3,40.65 L262.45,40.65 L262.45,39.65 L251.3,39.65 L251.3,38 L262.45,38 L262.45,37.75 L262.45,37.15 L251.3,37.15 L251.3,35.5 L262.45,35.5 L262.45,34.5 L251.3,34.5 L251.3,32.85 L262.45,32.85 L262.45,32.7 L262.45,32 L251.3,32 L251.3,30.35 L262.45,30.35 L262.45,29.35 L251.3,29.35 L251.3,27.7 L262.45,27.7 L262.45,27.55 L267.75,27.55 L267.75,27.5 L290.1,27.5 L290.1,27.55 L291.85,27.55 L291.85,26.05 L306.55,26.05 L306.55,27.55 L292.55,27.55 L292.55,27.55 Z M306.55,25.3 L291.85,25.3 L291.85,23.75 L306.55,23.75 L306.55,25.3 L306.55,25.3 Z M266.05,9.7 L266.05,11.4 L251.3,11.4 L251.3,9.7 L266.05,9.7 L266.05,9.7 Z M266.05,1.95 L266.05,4.2 L260.9,4.25 L259.45,4.95 L266.05,4.9 L266.05,6.6 L256.15,6.6 L254.75,7.25 L266.05,7.2 L266.05,8.85 L251.4,8.85 L250.35,9.35 L251.4,8.85 L254.75,7.25 L256.15,6.6 L259.45,4.95 L260.9,4.25 L262.75,3.35 L266.7,1.45 L262.75,3.35 L266.05,1.95 L266.05,1.95 Z M265.3,14.85 L265.3,16.55 L251.3,16.55 L251.3,14.85 L265.3,14.85 L265.3,14.85 Z M265.3,22.5 L265.3,24.2 L251.3,24.2 L251.3,22.5 L265.3,22.5 L265.3,22.5 Z M265.3,20.05 L265.3,21.7 L251.3,21.7 L251.3,20.05 L265.3,20.05 L265.3,20.05 Z M265.3,17.35 L265.3,19.05 L251.3,19.05 L251.3,17.35 L265.3,17.35 L265.3,17.35 Z M266.05,12.2 L266.05,13.9 L251.3,13.9 L251.3,12.2 L266.05,12.2 L266.05,12.2 Z M251.3,26.85 L251.3,25.2 L266.05,25.2 L266.05,25.35 L264.3,25.35 L264.3,26.85 L251.3,26.85 L251.3,26.85 Z M269.55,57.95 L269.55,53.95 L285.35,53.95 L285.35,57.95 L269.55,57.95 L269.55,57.95 Z M290.1,58 L287.7,58 L287.7,53.9 L290.1,53.9 L290.1,58 L290.1,58 Z M292.55,51.95 L292.55,51.2 L286.3,51.2 L286.3,52.9 L290.1,52.9 L291.85,52.9 L292.55,52.9 L292.55,51.95 L292.55,51.95 Z M292.55,51.2 L292.55,50.85 L292.55,49.5 L286.3,49.5 L286.3,51.2 L292.55,51.2 L292.55,51.2 Z M268.8,52.9 L268.8,51.2 L262.45,51.2 L262.45,52.9 L267.75,52.9 L268.8,52.9 L268.8,52.9 Z M268.8,51.2 L268.8,52.9 L286.3,52.9 L286.3,51.2 L268.8,51.2 L268.8,51.2 Z M268.8,51.2 L268.8,49.5 L262.45,49.5 L262.45,49.95 L262.45,51.2 L268.8,51.2 L268.8,51.2 Z M262.45,47.5 L262.45,47.8 L268.8,47.8 L268.8,46.15 L262.45,46.15 L262.45,47.5 L262.45,47.5 Z M262.45,47.8 L262.45,48.3 L262.45,49.5 L268.8,49.5 L268.8,47.8 L262.45,47.8 L262.45,47.8 Z M262.45,44.45 L262.45,44.8 L262.45,45.8 L262.45,46.15 L268.8,46.15 L268.8,44.45 L262.45,44.45 L262.45,44.45 Z M262.45,42.8 L262.45,43.15 L262.45,44.45 L268.8,44.45 L268.8,42.8 L262.45,42.8 L262.45,42.8 Z M262.45,41.1 L262.45,42.35 L262.45,42.8 L268.8,42.8 L268.8,41.1 L262.45,41.1 L262.45,41.1 Z M262.45,37.75 L262.45,38 L262.45,39.45 L268.8,39.45 L268.8,37.75 L262.45,37.75 L262.45,37.75 Z M262.45,39.45 L262.45,39.65 L262.45,40.65 L262.45,41.1 L268.8,41.1 L268.8,39.45 L262.45,39.45 L262.45,39.45 Z M262.45,37.15 L262.45,37.75 L268.8,37.75 L268.8,36.1 L262.45,36.1 L262.45,37.15 L262.45,37.15 Z M262.45,34.4 L262.45,34.5 L262.45,35.5 L262.45,36.1 L268.8,36.1 L268.8,34.4 L262.45,34.4 L262.45,34.4 Z M262.45,32.7 L262.45,32.85 L262.45,34.4 L268.8,34.4 L268.8,32.7 L262.45,32.7 L262.45,32.7 Z M262.45,31.05 L262.45,32 L262.45,32.7 L268.8,32.7 L268.8,31.05 L262.45,31.05 L262.45,31.05 Z M262.45,29.35 L262.45,30.35 L262.45,31.05 L268.8,31.05 L268.8,29.35 L262.45,29.35 L262.45,29.35 Z M262.45,27.55 L262.45,27.7 L262.45,29.35 L268.8,29.35 L268.8,27.55 L267.75,27.55 L262.45,27.55 L262.45,27.55 Z M292.55,44.45 L292.55,43.9 L292.55,42.8 L286.3,42.8 L286.3,44.45 L292.55,44.45 L292.55,44.45 Z M292.55,49.35 L292.55,48.6 L292.55,47.8 L286.3,47.8 L286.3,49.5 L292.55,49.5 L292.55,49.35 L292.55,49.35 Z M286.3,44.45 L286.3,46.15 L292.55,46.15 L292.55,44.7 L292.55,44.45 L286.3,44.45 L286.3,44.45 Z M286.3,46.15 L286.3,47.8 L292.55,47.8 L292.55,47.1 L292.55,46.2 L292.55,46.15 L286.3,46.15 L286.3,46.15 Z M292.55,42.8 L292.55,42.4 L292.55,41.5 L292.55,41.1 L286.3,41.1 L286.3,42.8 L292.55,42.8 L292.55,42.8 Z M292.55,40 L292.55,39.45 L286.3,39.45 L286.3,41.1 L292.55,41.1 L292.55,40 L292.55,40 Z M292.55,39.45 L292.55,39.25 L292.55,37.75 L286.3,37.75 L286.3,39.45 L292.55,39.45 L292.55,39.45 Z M292.55,36.85 L292.55,36.1 L286.3,36.1 L286.3,37.75 L292.55,37.75 L292.55,36.85 L292.55,36.85 Z M286.3,31.05 L286.3,32.7 L292.55,32.7 L292.55,32.25 L292.55,31.05 L286.3,31.05 L286.3,31.05 Z M286.3,34.4 L286.3,36.1 L292.55,36.1 L292.55,35.35 L292.55,34.65 L292.55,34.4 L286.3,34.4 L286.3,34.4 Z M286.3,32.7 L286.3,34.4 L292.55,34.4 L292.55,33.1 L292.55,32.7 L286.3,32.7 L286.3,32.7 Z M286.3,29.35 L286.3,27.55 L268.8,27.55 L268.8,29.35 L286.3,29.35 L286.3,29.35 Z M292.55,29.95 L292.55,29.35 L286.3,29.35 L286.3,31.05 L292.55,31.05 L292.55,30.7 L292.55,29.95 L292.55,29.95 Z M292.55,27.55 L291.85,27.55 L290.1,27.55 L286.3,27.55 L286.3,29.35 L292.55,29.35 L292.55,28.45 L292.55,27.55 L292.55,27.55 Z M267.75,24 L267.75,21.9 L266.6,21.9 L266.6,22.15 L266.6,24 L267.75,24 L267.75,24 Z M267.75,19.8 L266.6,19.8 L266.6,21.9 L267.75,21.9 L267.75,19.8 L267.75,19.8 Z M267.75,17.7 L266.6,17.7 L266.6,19.8 L267.75,19.8 L267.75,17.7 L267.75,17.7 Z M266.6,17.6 L266.6,17.7 L267.75,17.7 L267.75,15.55 L266.6,15.55 L266.6,17.6 L266.6,17.6 Z M341.1,59.4 L341.1,29.75 L310.5,29.75 L310.5,59.4 L341.1,59.4 L341.1,59.4 Z M339.65,31.85 L339.65,34.7 L340.2,34.7 L339.65,34.7 L339.65,34.8 L339.65,37.65 L340.1,37.65 L339.65,37.65 L339.65,40.6 L339.65,40.85 L340.25,40.85 L339.65,40.85 L339.65,43.35 L333.6,43.35 L326.35,43.35 L326.35,44.1 L333.6,44.1 L333.6,43.8 L333.6,44.1 L339.65,44.1 L339.65,46.95 L340.2,46.95 L339.65,46.95 L339.65,47.1 L339.65,49.9 L340.1,49.9 L339.65,49.9 L339.65,52.8 L339.65,53.1 L340.25,53.1 L339.65,53.1 L339.65,55.6 L333.6,55.6 L326.35,55.6 L326.35,55.9 L326.35,55.6 L318.85,55.6 L318.85,55.9 L318.85,55.6 L312.25,55.6 L312.25,52.8 L312.25,49.9 L312.25,47.1 L312.25,44.1 L318.85,44.1 L318.85,43.35 L312.2,43.35 L312.2,40.85 L311.7,40.85 L312.2,40.85 L312.2,40.6 L312.2,37.65 L311.95,37.65 L312.2,37.65 L312.2,34.8 L312.2,34.7 L311.65,34.7 L312.2,34.7 L312.2,31.85 L318.85,31.85 L318.85,31.35 L318.85,31.85 L326.35,31.85 L326.35,31.45 L326.35,31.85 L333.6,31.85 L333.6,31.55 L333.6,31.85 L339.65,31.85 L339.65,31.85 Z M326.35,44.1 L326.35,43.35 L318.85,43.35 L318.85,44.1 L326.35,44.1 L326.35,44.1 Z M384.6,59.4 L384.6,18.4 L345.3,18.4 L345.3,59.4 L384.6,59.4 L384.6,59.4 Z M375,20.85 L375,21.3 L382.7,21.3 L382.7,25.15 L383.45,25.15 L382.7,25.15 L382.7,25.35 L382.7,29.3 L383.3,29.3 L382.7,29.3 L382.7,33.35 L382.7,33.75 L383.5,33.75 L382.7,33.75 L382.7,37.15 L375,37.15 L365.65,37.15 L365.65,38.25 L375,38.25 L375,37.8 L375,38.25 L382.7,38.25 L382.7,42.1 L383.45,42.1 L382.7,42.1 L382.7,42.3 L382.7,46.25 L383.3,46.25 L382.7,46.25 L382.7,50.3 L382.7,50.7 L383.5,50.7 L382.7,50.7 L382.7,54.15 L375,54.15 L365.65,54.15 L365.65,54.5 L365.65,54.15 L356.05,54.15 L356.05,54.5 L356.05,54.15 L347.5,54.15 L347.5,50.3 L347.5,46.25 L347.5,42.3 L347.5,38.25 L356.05,38.25 L356.05,37.15 L347.45,37.15 L347.45,33.75 L346.8,33.75 L347.45,33.75 L347.45,33.35 L347.45,29.3 L347.1,29.3 L347.45,29.3 L347.45,25.35 L347.45,25.15 L346.7,25.15 L347.45,25.15 L347.45,21.3 L356.05,21.3 L356.05,20.55 L356.05,21.3 L365.65,21.3 L365.65,20.7 L365.65,21.3 L375,21.3 L375,20.85 L375,20.85 Z M365.65,38.25 L365.65,37.15 L356.05,37.15 L356.05,38.25 L365.65,38.25 L365.65,38.25 Z M342.5,28.65 L342.5,26.25 L309.2,26.25 L309.2,28.65 L342.5,28.65 L342.5,28.65 Z M386.3,17.1 L386.3,15.05 L343.8,15.05 L343.8,17.1 L386.3,17.1 L386.3,17.1 Z M418.2,59.4 L418.2,13.9 L389,13.9 L389,59.4 L418.2,59.4 L418.2,59.4 Z M414.4,17.85 L414.4,22.9 L415.65,22.9 L414.4,22.9 L414.4,27.7 L409.05,27.7 L409.05,29.75 L409.05,27.7 L403.1,27.7 L403.1,29.75 L403.1,27.7 L397.15,27.7 L397.15,29.75 L397.15,27.7 L391.85,27.7 L391.85,22.9 L390.9,22.9 L391.85,22.9 L391.85,17.85 L397.15,17.85 L397.15,17.05 L397.15,17.85 L403.1,17.85 L403.1,17.05 L403.1,17.85 L409.05,17.85 L409.05,17.05 L409.05,17.85 L414.4,17.85 L414.4,17.85 Z M414.4,32 L414.4,37.05 L415.65,37.05 L414.4,37.05 L414.4,41.85 L409.05,41.85 L409.05,43.85 L409.05,41.85 L403.1,41.85 L403.1,43.85 L403.1,41.85 L397.15,41.85 L397.15,43.85 L397.15,41.85 L391.85,41.85 L391.85,37.05 L390.9,37.05 L391.85,37.05 L391.85,32 L397.15,32 L397.15,31.2 L397.15,32 L403.1,32 L403.1,31.2 L403.1,32 L409.05,32 L409.05,31.2 L409.05,32 L414.4,32 L414.4,32 Z M409.05,44.2 L409.05,45 L414.4,45 L414.4,50.05 L415.65,50.05 L414.4,50.05 L414.4,54.85 L409.05,54.85 L409.05,56.85 L409.05,54.85 L403.1,54.85 L403.1,56.85 L403.1,54.85 L397.15,54.85 L397.15,56.85 L397.15,54.85 L391.85,54.85 L391.85,50.05 L390.9,50.05 L391.85,50.05 L391.85,45 L397.15,45 L397.15,44.2 L397.15,45 L403.1,45 L403.1,44.2 L403.1,45 L409.05,45 L409.05,44.2 L409.05,44.2 Z M450.7,59.4 L450.85,59.4 L450.7,59.3 L450.7,59.4 L450.7,59.4 Z M442.3,31.55 L442.3,29.5 L430.1,29.5 L430.1,31.55 L419.65,31.55 L419.65,59.4 L445.85,59.4 L445.85,31.55 L442.3,31.55 L442.3,31.55 Z M421.5,48.15 L421.5,46.05 L421.5,43.95 L421.5,42.2 L421.5,40.05 L421.5,38.75 L427.05,38.75 L427.05,37.35 L421.95,37.35 L421.95,33.55 L427.05,33.55 L432.45,33.55 L438.05,33.55 L443.45,33.55 L443.45,37.35 L438.05,37.35 L438.05,38.75 L443.45,38.75 L443.45,40.05 L443.45,42.2 L443.45,43.95 L443.45,46.05 L443.45,48.15 L443.45,50.3 L443.45,52.05 L443.45,54.05 L443.45,55.9 L443.45,57.75 L438.05,57.75 L432.45,57.75 L427.05,57.75 L421.5,57.75 L421.5,55.9 L421.5,54.05 L421.5,52.05 L421.5,50.3 L421.5,48.15 L421.5,48.15 Z M432.45,38.75 L432.45,37.35 L427.05,37.35 L427.05,38.75 L432.45,38.75 L432.45,38.75 Z M432.45,37.35 L432.45,38.75 L438.05,38.75 L438.05,37.35 L432.45,37.35 L432.45,37.35 Z M419.1,13.4 L419.1,12 L387.75,12 L387.75,13.4 L419.1,13.4 L419.1,13.4 Z M450.45,18 L450.45,18.1 L462.4,18.1 L462.4,18 L450.45,18 L450.45,18 Z M450.45,18 L447.2,18 L447.2,58.75 L465,58.75 L465,18 L462.4,18 L462.4,18.1 L450.45,18.1 L450.45,18 L450.45,18 Z M449.45,24.6 L448.75,24.6 L449.45,24.6 L449.45,20.65 L449.45,20.6 L462.5,20.6 L462.5,20.65 L462.5,24.6 L462.5,29.15 L462.5,33.8 L462.85,33.8 L462.5,33.8 L462.5,38.6 L462.5,43.35 L462.5,47.8 L462.5,52.7 L462.85,52.7 L462.5,52.7 L462.5,56.8 L462.5,56.85 L453.85,56.85 L453.85,57.7 L453.85,56.85 L449.45,56.85 L449.45,56.8 L449.45,52.7 L448.95,52.7 L449.45,52.7 L449.45,47.8 L449.45,43.35 L448.6,43.35 L449.45,43.35 L449.45,38.6 L449.45,33.8 L448.75,33.8 L449.45,33.8 L449.45,29.15 L449.2,29.15 L449.45,29.15 L449.45,24.6 L449.45,24.6 Z M449.45,56.8 L449.45,56.85 L453.85,56.85 L453.85,56.8 L453.65,56.8 L449.45,56.8 L449.45,56.8 Z M462.5,56.8 L457.95,56.8 L453.85,56.8 L453.85,56.85 L462.5,56.85 L462.5,56.8 L462.5,56.8 Z M449.45,20.6 L449.45,20.65 L453.65,20.65 L457.95,20.65 L462.5,20.65 L462.5,20.6 L449.45,20.6 L449.45,20.6 Z M456.65,0.05 L456.45,0.05 L455.35,8.65 L455.35,8.7 L456.5,8.7 L457.75,8.7 L457.75,8.65 L456.65,0.05 L456.65,0.05 Z M487.25,59.4 L487.25,20.95 L485.2,20.95 L485.2,19.55 L480.2,19.55 L480.2,23.7 L480.2,29.15 L480.2,34.55 L480.2,40.1 L480.2,45.55 L480.2,50.25 L480.2,52 L477.7,52 L475.8,52 L473.25,52 L473.25,50.25 L473.25,45.55 L473.25,40.1 L473.25,34.55 L473.25,29.15 L473.25,23.7 L473.25,19.55 L475.8,19.55 L477.7,19.55 L480.2,19.55 L480.2,17.2 L473.15,17.2 L473.15,19.5 L467.95,19.5 L467.95,20.95 L466.45,20.95 L466.45,59.4 L487.25,59.4 L487.25,59.4 Z M486.1,22.25 L486.1,23.4 L486.1,25.7 L486.1,27.95 L486.1,30.25 L486.1,32.4 L486.1,34.7 L486.1,36.95 L486.1,39.25 L486.1,41.35 L486.1,43.7 L486.1,45.9 L486.1,48.2 L486.1,50.25 L486.1,50.9 L481.6,50.9 L481.6,50.25 L481.6,48.2 L481.6,45.9 L481.6,43.7 L481.6,41.35 L481.6,39.25 L481.6,36.95 L481.6,34.7 L481.6,32.4 L481.6,30.25 L481.6,27.95 L481.6,25.7 L481.6,23.4 L481.6,22.25 L486.1,22.25 L486.1,22.25 Z M467.65,23.4 L467.65,22.25 L472.15,22.25 L472.15,23.4 L472.15,25.7 L472.15,27.95 L472.15,30.25 L472.15,32.4 L472.15,34.7 L472.15,36.95 L472.15,39.25 L472.15,41.35 L472.15,43.7 L472.15,45.9 L472.15,48.2 L472.15,50.25 L472.15,50.9 L467.65,50.9 L467.65,50.25 L467.65,48.2 L467.65,45.9 L467.65,43.7 L467.65,41.35 L467.65,39.25 L467.65,36.95 L467.65,34.7 L467.65,32.4 L467.65,30.25 L467.65,27.95 L467.65,25.7 L467.65,23.4 L467.65,23.4 Z M504.9,24.55 L501.95,24.55 L501.95,26.9 L492.85,26.9 L492.85,28.5 L489.85,28.5 L489.85,59.4 L516.45,59.4 L516.45,28.5 L513.8,28.5 L513.8,26.9 L507.8,26.9 L507.8,24.55 L504.9,24.55 L504.9,24.55 Z M492.9,36.05 L492.9,33.45 L492.9,30.9 L502.9,30.9 L512.95,30.9 L512.95,33.45 L512.95,36.05 L512.95,38.65 L512.95,41.35 L512.95,43 L513,44.05 L512.95,43 L502.9,43 L502.9,44.7 L512.95,44.7 L512.95,47.25 L512.95,49.85 L512.95,52.4 L512.95,55.1 L512.95,57.6 L502.9,57.6 L492.9,57.6 L492.9,55.1 L492.9,52.4 L492.9,49.85 L492.9,47.25 L492.9,44.7 L502.9,44.7 L502.9,43 L492.85,43 L492.9,42.9 L492.9,41.35 L492.9,38.65 L492.9,36.05 L492.9,36.05 Z M535.85,40.7 L535.85,38.35 L532.95,38.35 L530,38.35 L530,40.7 L520.9,40.7 L520.9,42.3 L517.9,42.3 L517.9,59.4 L544.5,59.4 L544.5,42.3 L541.85,42.3 L541.85,40.7 L535.85,40.7 L535.85,40.7 Z M541,44.7 L541,47.25 L541,49.85 L541,52.4 L541,55.1 L541,57.6 L531,57.6 L520.95,57.6 L520.95,55.1 L520.95,52.4 L520.95,49.85 L520.95,47.25 L520.95,44.7 L531,44.7 L541,44.7 L541,44.7 Z M571.352976,43.9585014 L546.959717,43.9489746 L547.048512,59.4 L571.45,59.4 L571.352976,43.9585014 Z M568.75,49.45 L567.85,49.45 L567.85,50.7 L568.75,50.7 L567.85,50.7 L567.85,52.05 L568.75,52.05 L567.85,52.05 L567.85,53.4 L568.75,53.4 L567.85,53.4 L567.85,54.75 L568.75,54.75 L567.85,54.75 L567.85,55.95 L568.75,55.95 L567.85,55.95 L567.85,57.3 L568.75,57.3 L567.85,57.3 L567.85,58.65 L568.75,58.65 L567.85,58.65 L558.85,58.65 L550.45,58.65 L549.8,58.75 L550.45,58.65 L550.45,57.3 L549.55,57.3 L550.45,57.3 L550.45,55.95 L549.55,55.95 L550.45,55.95 L550.45,54.75 L549.55,54.75 L550.45,54.75 L550.45,53.4 L549.55,53.4 L550.45,53.4 L550.45,52.05 L549.55,52.05 L550.45,52.05 L550.45,50.7 L549.55,50.7 L550.45,50.7 L550.45,49.45 L549.55,49.45 L550.45,49.45 L550.45,48 L558.85,48 L567.85,48 L567.85,49.45 L568.75,49.45 L568.75,49.45 Z" id="Shape"></path>
                </g>
            </g>
            <g id="Layer0_0_MEMBER_0_1_STROKES-link" transform="translate(1.000000, 8.000000)" stroke="#DDDDDD">
                <path d="M567.75,41.45 L566.85,41.45 L566.85,42.7 L567.75,42.7 L567.75,41.45 Z M566.85,41.45 L566.85,40 L557.85,40 L557.85,41.45 L566.85,41.45 L566.85,41.45 Z M567.75,46.75 L566.85,46.75 L566.85,47.95 L567.75,47.95 L567.75,46.75 Z M566.85,45.4 L566.85,44.05 L557.85,44.05 L557.85,45.4 L566.85,45.4 L567.75,45.4 L566.85,45.4 Z M566.85,44.05 L566.85,42.7 L557.85,42.7 L557.85,44.05 L549.45,44.05 L549.45,45.4 L557.85,45.4 L557.85,46.75 L566.85,46.75 L566.85,45.4 L566.85,44.05 Z M567.75,44.05 L566.85,44.05 L567.75,44.05 Z M567.75,49.3 L566.85,49.3 L566.85,50.65 L567.75,50.65 L567.75,49.3 Z M566.85,49.3 L566.85,47.95 L557.85,47.95 L557.85,49.3 L566.85,49.3 L566.85,49.3 Z M530,36.7 L530,39.25 L540,39.25 L540,36.7 L530,36.7 L519.95,36.7 L519.95,39.25 L530,39.25 L530,41.85 L540,41.85 L540,39.25 L530,36.7 Z M549.45,41.45 L548.55,41.45 L549.45,41.45 Z M557.85,40 L549.45,40 L549.45,41.45 L557.85,41.45 L557.85,42.7 L549.45,42.7 L549.45,44.05 L548.55,44.05 L557.85,40 Z M485.1,15.4 L485.1,14.25 L480.6,14.25 L480.6,15.4 L485.1,15.4 L485.1,17.7 L485.1,19.95 L485.1,22.25 L485.1,24.4 L485.1,26.7 L485.1,28.95 L485.1,31.25 L485.1,33.35 L485.1,35.7 L485.1,37.9 L485.1,40.2 L485.1,42.25 L485.1,42.9 L480.6,42.9 L480.6,42.25 L480.6,40.2 L480.6,37.9 L480.6,35.7 L480.6,33.35 L480.6,31.25 L480.6,28.95 L480.6,26.7 L480.6,24.4 L480.6,22.25 L480.6,19.95 L480.6,17.7 L480.6,15.4 L485.1,15.4 Z M511.95,25.45 L501.9,25.45 L501.9,28.05 L511.95,28.05 L511.95,25.45 L511.95,22.9 L501.9,22.9 L501.9,25.45 L491.9,25.45 L491.9,28.05 L501.9,28.05 L501.9,30.65 L511.95,30.65 L511.95,28.05 L511.95,25.45 Z M501.9,22.9 L491.9,22.9 L491.9,25.45 L501.9,22.9 Z M501.9,36.7 L491.9,36.7 L491.9,39.25 L501.9,39.25 L501.9,36.7 L501.9,35 L501.9,36.7 Z M491.9,34.9 L491.9,33.35 L491.9,30.65 L491.9,28.05 L491.9,34.9 Z M511.95,33.35 L501.9,33.35 L501.9,35 L511.95,33.35 Z M511.95,35 L511.95,33.35 L511.95,30.65 L511.95,35 Z M501.9,30.65 L501.9,33.35 L491.9,33.35 L501.9,30.65 Z M501.9,30.65 L491.9,30.65 L501.9,30.65 Z M512,36.05 L511.95,35 L512,36.05 Z M511.95,39.25 L511.95,36.7 L501.9,36.7 L511.95,39.25 Z M511.95,39.25 L501.9,39.25 L501.9,41.85 L511.95,41.85 L511.95,39.25 L511.95,39.25 Z M511.95,41.85 L511.95,44.4 L511.95,47.1 L511.95,41.85 Z M511.95,44.4 L501.9,44.4 L501.9,47.1 L511.95,47.1 L511.95,49.6 L501.9,49.6 L491.9,49.6 L491.9,47.1 L491.9,44.4 L491.9,41.85 L491.9,39.25 L511.95,44.4 Z M519.95,41.85 L519.95,44.4 L530,44.4 L530,41.85 L519.95,41.85 L519.95,39.25 L519.95,41.85 Z M519.95,44.4 L519.95,47.1 L530,47.1 L530,44.4 L540,44.4 L540,41.85 L519.95,44.4 Z M519.95,47.1 L519.95,49.6 L530,49.6 L530,47.1 L540,47.1 L540,44.4 L519.95,47.1 Z M501.9,41.85 L501.9,44.4 L491.9,44.4 L501.9,41.85 Z M501.9,49.6 L501.9,47.1 L491.9,47.1 L501.9,49.6 Z M501.9,41.85 L491.9,41.85 L501.9,41.85 Z M557.85,49.3 L557.85,50.65 L566.85,50.65 L557.85,49.3 Z M557.85,46.75 L557.85,47.95 L549.45,47.95 L549.45,49.3 L557.85,49.3 L557.85,46.75 Z M549.45,42.7 L548.55,42.7 L549.45,42.7 Z M549.45,46.75 L548.55,46.75 L549.45,46.75 Z M548.55,45.4 L549.45,45.4 L549.45,46.75 L557.85,46.75 L548.55,45.4 Z M549.45,49.3 L548.55,49.3 L549.45,49.3 Z M549.45,47.95 L548.55,47.95 L549.45,47.95 Z M548.8,50.75 L549.45,50.65 L549.45,49.3 L548.8,50.75 Z M557.85,50.65 L549.45,50.65 L557.85,50.65 Z M549.45,46.75 L549.45,47.95 L549.45,46.75 Z M530,49.6 L540,49.6 L540,47.1 L530,49.6 Z M479.2,11.55 L479.2,9.2 L472.15,9.2 L472.15,11.5 L466.95,11.5 L466.95,12.95 L465.45,12.95 L465.45,51.4 L486.25,51.4 L486.25,12.95 L484.2,12.95 L484.2,11.55 L479.2,11.55 L479.2,15.7 L479.2,21.15 L479.2,26.55 L479.2,32.1 L479.2,37.55 L479.2,42.25 L479.2,44 L476.7,44 L474.8,44 L472.25,44 L472.25,42.25 L472.25,37.55 L472.25,32.1 L472.25,26.55 L472.25,21.15 L472.25,15.7 L472.25,11.55 L474.8,11.55 L476.7,11.55 L479.2,11.55 L479.2,11.55 Z M549.45,41.45 L549.45,42.7 L549.45,41.45 Z M471.15,15.4 L471.15,14.25 L466.65,14.25 L466.65,15.4 L471.15,15.4 L471.15,17.7 L471.15,19.95 L471.15,22.25 L471.15,24.4 L471.15,26.7 L471.15,28.95 L471.15,31.25 L471.15,33.35 L471.15,35.7 L471.15,37.9 L471.15,40.2 L471.15,42.25 L471.15,42.9 L466.65,42.9 L466.65,42.25 L466.65,40.2 L466.65,37.9 L466.65,35.7 L466.65,33.35 L466.65,31.25 L466.65,28.95 L466.65,26.7 L466.65,24.4 L466.65,22.25 L466.65,19.95 L466.65,17.7 L466.65,15.4 L471.15,15.4 Z M474.8,11.55 L474.8,15.7 L476.7,15.7 L476.7,11.55 L474.8,11.55 Z M472.25,21.15 L474.8,21.15 L474.8,15.7 L472.25,15.7 L472.25,21.15 Z M479.2,15.7 L476.7,15.7 L476.7,21.15 L479.2,21.15 L479.2,15.7 Z M456.75,0.65 L458,0.65 L458,5.8 L461.4,5.8 L461.4,6.85 L461.4,7.7 L461.4,8.55 L461.4,9.35 L461.4,10 L456.75,0.65 Z M449.45,10 L449.45,9.35 L449.45,8.55 L449.45,7.7 L449.45,6.85 L449.45,5.8 L452.95,5.8 L452.95,0.65 L454.35,0.65 L449.45,10 Z M449.45,10 L449.45,10.1 L461.4,10.1 L461.4,10 L449.45,10 Z M447.75,16.6 L448.45,16.6 L448.45,12.65 L447.75,16.6 Z M448.45,16.6 L452.65,16.6 L452.65,12.65 L448.45,16.6 Z M448.45,12.65 L448.45,12.6 L461.5,12.6 L461.5,12.65 L461.5,16.6 L461.5,21.15 L461.5,25.8 L461.85,25.8 L448.45,12.65 Z M455.5,0.7 L455.5,5.8 L458,5.8 L455.5,0.7 Z M456.95,12.65 L456.95,16.6 L461.5,16.6 L456.95,12.65 Z M461.4,8.55 L449.45,8.55 L461.4,8.55 Z M452.65,21.15 L456.95,21.15 L456.95,16.6 L452.65,16.6 L452.65,21.15 L452.65,25.8 L456.95,25.8 L456.95,21.15 L461.5,21.15 L452.65,21.15 Z M461.4,9.35 L449.45,9.35 L461.4,9.35 Z M461.4,6.85 L449.45,6.85 L461.4,6.85 Z M461.4,7.7 L449.45,7.7 L461.4,7.7 Z M452.95,5.8 L455.5,5.8 L452.95,5.8 Z M461.5,25.8 L456.95,25.8 L456.95,30.6 L461.5,30.6 L461.5,25.8 L461.5,25.8 Z M448.45,30.6 L452.65,30.6 L452.65,25.8 L448.45,25.8 L448.45,30.6 L448.45,35.35 L452.65,35.35 L452.65,30.6 L456.95,30.6 L456.95,35.35 L461.5,35.35 L461.5,30.6 L448.45,30.6 Z M448.45,21.15 L448.45,25.8 L447.75,25.8 L448.45,21.15 Z M452.65,21.15 L448.45,21.15 L448.45,16.6 L452.65,21.15 Z M448.45,21.15 L448.2,21.15 L448.45,21.15 Z M448.45,35.35 L448.45,39.8 L452.65,39.8 L452.65,35.35 L456.95,35.35 L456.95,39.8 L461.5,39.8 L461.5,35.35 L448.45,35.35 Z M448.45,35.35 L447.6,35.35 L448.45,35.35 Z M456.95,39.8 L452.65,39.8 L452.65,44.7 L456.95,44.7 L456.95,39.8 L456.95,39.8 Z M479.2,26.55 L476.7,26.55 L476.7,32.1 L479.2,32.1 L479.2,26.55 Z M476.7,21.15 L476.7,26.55 L474.8,26.55 L474.8,32.1 L476.7,32.1 L476.7,37.55 L479.2,37.55 L476.7,21.15 Z M474.8,26.55 L472.25,26.55 L474.8,26.55 Z M471.15,24.4 L466.65,24.4 L471.15,24.4 Z M471.15,28.95 L466.65,28.95 L471.15,28.95 Z M471.15,26.7 L466.65,26.7 L471.15,26.7 Z M471.15,22.25 L466.65,22.25 L471.15,22.25 Z M471.15,19.95 L466.65,19.95 L471.15,19.95 Z M471.15,17.7 L466.65,17.7 L471.15,17.7 Z M476.7,21.15 L474.8,21.15 L474.8,26.55 L476.7,21.15 Z M472.25,37.55 L474.8,37.55 L474.8,32.1 L472.25,32.1 L472.25,37.55 Z M471.15,33.35 L466.65,33.35 L471.15,33.35 Z M471.15,31.25 L466.65,31.25 L471.15,31.25 Z M471.15,35.7 L466.65,35.7 L471.15,35.7 Z M471.15,37.9 L466.65,37.9 L471.15,37.9 Z M471.15,40.2 L466.65,40.2 L471.15,40.2 Z M476.7,37.55 L474.8,37.55 L474.8,42.25 L476.7,42.25 L476.7,37.55 L476.7,37.55 Z M420.5,38.05 L420.5,40.15 L426.05,40.15 L426.05,38.05 L420.5,38.05 L420.5,35.95 L420.5,34.2 L420.5,32.05 L420.5,30.75 L426.05,30.75 L426.05,29.35 L420.95,29.35 L420.95,25.55 L426.05,25.55 L431.45,25.55 L437.05,25.55 L442.45,25.55 L442.45,29.35 L437.05,29.35 L437.05,30.75 L442.45,30.75 L442.45,32.05 L442.45,34.2 L442.45,35.95 L442.45,38.05 L442.45,40.15 L442.45,42.3 L442.45,44.05 L442.45,46.05 L442.45,47.9 L442.45,49.75 L437.05,49.75 L431.45,49.75 L426.05,49.75 L420.5,49.75 L420.5,47.9 L420.5,46.05 L420.5,44.05 L420.5,42.3 L420.5,40.15 L420.5,38.05 Z M431.45,34.2 L437.05,34.2 L437.05,32.05 L431.45,32.05 L431.45,34.2 L431.45,35.95 L437.05,35.95 L437.05,34.2 L442.45,34.2 L431.45,34.2 Z M431.45,29.35 L431.45,30.75 L437.05,30.75 L437.05,32.05 L442.45,32.05 L431.45,29.35 Z M431.45,30.75 L431.45,32.05 L426.05,32.05 L426.05,34.2 L431.45,34.2 L431.45,30.75 Z M426.05,30.75 L426.05,32.05 L420.5,32.05 L426.05,30.75 Z M426.05,35.95 L426.05,38.05 L431.45,38.05 L431.45,35.95 L426.05,35.95 L426.05,34.2 L420.5,34.2 L426.05,35.95 Z M437.05,38.05 L431.45,38.05 L431.45,40.15 L437.05,40.15 L437.05,38.05 L437.05,35.95 L442.45,35.95 L437.05,38.05 Z M431.45,30.75 L426.05,30.75 L431.45,30.75 Z M426.05,29.35 L431.45,29.35 L431.45,25.55 L426.05,29.35 Z M431.45,42.3 L431.45,40.15 L426.05,40.15 L426.05,42.3 L431.45,42.3 L437.05,42.3 L437.05,40.15 L442.45,40.15 L431.45,42.3 Z M442.45,38.05 L437.05,38.05 L442.45,38.05 Z M426.05,25.55 L426.05,29.35 L426.05,25.55 Z M437.05,25.55 L437.05,29.35 L431.45,29.35 L437.05,25.55 Z M426.05,35.95 L420.5,35.95 L426.05,35.95 Z M442.45,42.3 L437.05,42.3 L437.05,44.05 L442.45,44.05 L442.45,42.3 Z M437.05,44.05 L437.05,46.05 L442.45,46.05 L437.05,44.05 Z M442.45,47.9 L437.05,47.9 L437.05,49.75 L442.45,47.9 Z M437.05,46.05 L437.05,47.9 L431.45,47.9 L431.45,49.75 L437.05,46.05 Z M431.45,42.3 L431.45,44.05 L437.05,44.05 L431.45,42.3 Z M431.45,44.05 L431.45,46.05 L437.05,46.05 L431.45,44.05 Z M431.45,44.05 L426.05,44.05 L426.05,46.05 L431.45,46.05 L431.45,47.9 L426.05,47.9 L426.05,49.75 L431.45,44.05 Z M426.05,42.3 L426.05,44.05 L420.5,44.05 L426.05,42.3 Z M426.05,46.05 L426.05,47.9 L420.5,47.9 L426.05,46.05 Z M426.05,46.05 L420.5,46.05 L426.05,46.05 Z M426.05,42.3 L420.5,42.3 L426.05,42.3 Z M479.2,42.25 L476.7,42.25 L476.7,44 L479.2,42.25 Z M474.8,44 L474.8,42.25 L472.25,42.25 L474.8,44 Z M471.15,42.25 L466.65,42.25 L471.15,42.25 Z M461.5,44.7 L456.95,44.7 L456.95,48.8 L461.5,44.7 Z M461.5,48.8 L461.5,44.7 L461.5,39.8 L461.5,48.8 Z M452.85,48.8 L452.85,48.85 L461.5,48.85 L461.5,48.8 L452.85,48.8 Z M461.85,44.7 L461.5,44.7 L461.85,44.7 Z M448.45,44.7 L447.95,44.7 L448.45,44.7 Z M448.45,48.8 L448.45,48.85 L452.85,48.85 L452.85,49.7 L448.45,48.8 Z M448.45,48.8 L448.45,44.7 L448.45,39.8 L448.45,48.8 Z M452.65,48.8 L452.65,44.7 L448.45,44.7 L452.65,48.8 Z M485.1,42.25 L480.6,42.25 L485.1,42.25 Z M485.1,40.2 L480.6,40.2 L485.1,40.2 Z M485.1,33.35 L480.6,33.35 L485.1,33.35 Z M485.1,28.95 L480.6,28.95 L485.1,28.95 Z M485.1,26.7 L480.6,26.7 L485.1,26.7 Z M485.1,35.7 L480.6,35.7 L485.1,35.7 Z M485.1,37.9 L480.6,37.9 L485.1,37.9 Z M485.1,31.25 L480.6,31.25 L485.1,31.25 Z M485.1,19.95 L480.6,19.95 L485.1,19.95 Z M485.1,17.7 L480.6,17.7 L485.1,17.7 Z M485.1,24.4 L480.6,24.4 L485.1,24.4 Z M485.1,22.25 L480.6,22.25 L485.1,22.25 Z M22.35,13.2 L21.8,13.2 L22.35,13.2 Z M27.8,11.95 L22.35,11.95 L22.35,13.2 L27.8,13.2 L27.8,11.95 L33.55,11.95 L33.55,13.2 L34.15,13.2 L27.8,11.95 Z M22.35,13.2 L22.35,14.35 L22.35,15.5 L27.8,15.5 L27.8,13.2 L33.55,13.2 L33.55,14.35 L34.15,14.35 L22.35,13.2 Z M22.35,15.5 L22.35,16.7 L22.35,17.85 L27.8,17.85 L27.8,15.5 L33.55,15.5 L33.55,14.35 L22.35,15.5 Z M22.35,16.7 L21.8,16.7 L22.35,16.7 Z M22.35,14.35 L21.8,14.35 L22.35,14.35 Z M22.35,15.5 L21.8,15.5 L22.35,15.5 Z M34.15,16.7 L33.55,16.7 L33.55,17.85 L34.15,17.85 L34.15,16.7 Z M33.55,16.7 L33.55,15.5 L34.15,15.5 L33.55,16.7 Z M8.1,21.85 L15.9,21.85 L15.9,19.3 L8.1,19.3 L8.1,21.85 L0.3,21.85 L0.3,19.3 L8.1,19.3 L8.1,21.85 Z M8.15,27.2 L0.75,27.2 L0.75,31.85 L8.15,31.85 L8.15,27.2 L15.55,27.2 L15.55,31.85 L15.55,36.55 L15.55,41.25 L15.55,46.25 L8.15,46.25 L0.75,46.25 L0.75,41.25 L0.75,36.55 L0.75,31.85 L8.15,27.2 Z M15.55,36.55 L8.15,36.55 L8.15,41.25 L15.55,41.25 L15.55,36.55 Z M8.15,46.25 L8.15,41.25 L0.75,41.25 L8.15,46.25 Z M8.15,36.55 L0.75,36.55 L8.15,36.55 Z M15.55,31.85 L8.15,31.85 L8.15,36.55 L15.55,31.85 Z M33.55,20.1 L33.55,18.95 L33.55,17.85 L27.8,17.85 L27.8,20.1 L33.55,20.1 L34.15,20.1 L33.55,20.1 Z M34.15,21.3 L33.55,21.3 L27.8,21.3 L22.35,21.3 L21.85,21.4 L34.15,21.3 Z M33.55,21.3 L33.55,20.1 L33.55,21.3 Z M34.15,18.95 L33.55,18.95 L34.15,18.95 Z M33.55,26.45 L33.55,25.25 L33.55,24.15 L27.8,24.15 L27.8,26.45 L33.55,26.45 L34.15,26.45 L33.55,26.45 Z M34.15,25.25 L33.55,25.25 L34.15,25.25 Z M34.15,24.15 L33.55,24.15 L33.55,22.9 L27.8,22.9 L27.8,24.15 L22.35,24.15 L22.35,25.25 L22.35,26.45 L27.8,26.45 L27.8,28.8 L33.55,28.8 L33.55,27.6 L33.55,26.45 L34.15,24.15 Z M34.15,27.65 L33.55,27.6 L34.15,27.65 Z M34.15,28.8 L33.55,28.8 L33.55,29.9 L34.15,29.9 L34.15,28.8 Z M27.8,20.1 L27.8,21.3 L27.8,20.1 Z M21.8,18.95 L22.35,18.95 L22.35,17.85 L21.8,18.95 Z M22.35,18.95 L22.35,20.1 L27.8,20.1 L22.35,18.95 Z M22.35,17.85 L21.8,17.85 L22.35,17.85 Z M22.35,21.3 L22.35,20.1 L21.8,20.1 L22.35,21.3 Z M22.35,24.15 L21.8,24.15 L22.35,24.15 Z M22.35,25.25 L21.8,25.25 L22.35,25.25 Z M21.8,26.45 L22.35,26.45 L22.35,27.6 L22.35,28.8 L27.8,28.8 L27.8,31.05 L33.55,31.05 L33.55,29.9 L21.8,26.45 Z M22.35,27.6 L21.8,27.65 L22.35,27.6 Z M22.35,28.8 L21.8,28.8 L22.35,28.8 Z M27.8,22.9 L22.35,22.9 L22.35,24.15 L27.8,22.9 Z M27.8,33.95 L27.8,35.2 L33.55,35.2 L33.55,33.95 L27.8,33.95 L22.35,33.95 L22.35,35.2 L27.8,35.2 L27.8,37.5 L33.55,37.5 L33.55,36.3 L33.55,35.2 L34.15,35.2 L27.8,33.95 Z M27.8,31.05 L27.8,32.25 L33.55,32.25 L33.55,31.05 L34.15,31.05 L27.8,31.05 Z M22.35,31.05 L21.8,31.05 L22.35,31.05 Z M22.35,28.8 L22.35,29.9 L22.35,31.05 L27.8,31.05 L22.35,28.8 Z M22.35,29.9 L21.8,29.9 L22.35,29.9 Z M22.35,32.25 L21.85,32.15 L22.35,32.25 Z M22.35,35.2 L21.8,35.2 L22.35,35.2 Z M22.35,31.05 L22.35,32.25 L27.8,32.25 L22.35,31.05 Z M21.8,36.3 L22.35,36.3 L22.35,35.2 L21.8,36.3 Z M22.35,36.3 L22.35,37.5 L27.8,37.5 L27.8,39.85 L33.55,39.85 L33.55,38.65 L33.55,37.5 L34.15,37.5 L22.35,36.3 Z M22.35,37.5 L21.8,37.5 L22.35,37.5 Z M22.35,40.95 L21.8,40.95 L22.35,40.95 Z M22.35,39.85 L21.8,39.85 L22.35,39.85 Z M22.35,37.5 L22.35,38.65 L22.35,39.85 L27.8,39.85 L27.8,42.05 L33.55,42.05 L33.55,40.95 L33.55,39.85 L34.15,39.85 L22.35,37.5 Z M22.35,38.65 L21.8,38.65 L22.35,38.65 Z M22.35,39.85 L22.35,40.95 L22.35,42.05 L27.8,42.05 L27.8,43.25 L33.55,43.25 L33.55,42.05 L34.15,42.05 L22.35,39.85 Z M34.15,32.25 L33.55,32.25 L34.15,32.25 Z M34.15,36.3 L33.55,36.3 L34.15,36.3 Z M34.15,38.65 L33.55,38.65 L34.15,38.65 Z M34.15,40.95 L33.55,40.95 L34.15,40.95 Z M34.15,43.25 L33.55,43.25 L34.15,43.25 Z M33.55,46.05 L33.55,44.85 L27.8,44.85 L27.8,46.05 L33.55,46.05 L34.15,46.05 L33.55,46.05 Z M34.15,47.15 L33.55,47.15 L33.55,48.3 L34.15,48.3 L34.15,47.15 Z M33.55,47.15 L33.55,46.05 L33.55,47.15 Z M34.15,44.85 L33.55,44.85 L34.15,44.85 Z M27.8,49.45 L33.55,49.45 L33.55,48.3 L27.8,48.3 L27.8,49.45 L22.35,49.45 L21.85,49.65 L27.8,49.45 Z M34.15,49.45 L33.55,49.45 L34.15,49.45 Z M27.8,44.85 L22.35,44.85 L22.35,46.05 L27.8,46.05 L27.8,48.3 L22.35,48.3 L22.35,49.45 L27.8,44.85 Z M22.35,44.85 L21.8,44.85 L22.35,44.85 Z M22.35,47.15 L21.8,47.15 L22.35,47.15 Z M21.85,43.2 L22.35,43.25 L22.35,42.05 L21.85,43.2 Z M27.8,43.25 L22.35,43.25 L27.8,43.25 Z M22.35,42.05 L21.8,42.05 L22.35,42.05 Z M22.35,46.05 L22.35,47.15 L22.35,48.3 L21.8,48.3 L22.35,46.05 Z M22.35,46.05 L21.8,46.05 L22.35,46.05 Z" id="Layer0_0_MEMBER_0_1_STROKES"></path>
            </g>
            <g id="Layer0_0_MEMBER_0_2_STROKES-link" transform="translate(4.000000, 16.000000)" stroke="#DDDDDD">
                <path d="M528.95,22.35 L528.95,17.85 M500.9,8.55 L500.9,0.7 M282.3,11.55 L282.3,13.35 M282.3,18.4 L282.3,16.7 L282.3,15.05 M264.8,15.05 L264.8,16.7 M282.3,18.4 L282.3,20.1 M282.3,13.35 L282.3,15.05 M264.8,13.35 L264.8,15.05 M264.8,16.7 L264.8,18.4 M282.3,21.75 L282.3,23.45 L282.3,25.1 L282.3,26.8 M282.3,31.8 L282.3,30.15 L282.3,28.45 M264.8,28.45 L264.8,30.15 M282.3,26.8 L282.3,28.45 M282.3,20.1 L282.3,21.75 M264.8,21.75 L264.8,23.45 M264.8,11.55 L264.8,13.35 M264.8,18.4 L264.8,20.1 M264.8,23.45 L264.8,25.1 L264.8,26.8 M264.8,30.15 L264.8,31.8 M282.3,31.8 L282.3,33.5 M264.8,26.8 L264.8,28.45 M264.8,20.1 L264.8,21.75 M264.8,33.5 L264.8,35.2 M282.3,33.5 L282.3,35.2 M264.8,31.8 L264.8,33.5 M264.8,35.2 L264.8,36.9 M282.3,35.2 L282.3,36.9 M0.1,3.4 L0.1,8.65" id="Layer0_0_MEMBER_0_2_STROKES"></path>
            </g>
            <g id="Layer0_0_MEMBER_0_3_STROKES-link" transform="translate(38.000000, 0.000000)" stroke="#DDDDDD">
                <path d="M376.4,22.9 L376.4,17.85 L371.05,17.85 L371.05,22.9 L376.4,22.9 L377.65,22.9 L376.4,22.9 Z M371.05,17.05 L371.05,17.85 L365.1,17.85 L365.1,22.9 L371.05,22.9 L371.05,27.7 L376.4,27.7 L376.4,22.9 L371.05,17.05 Z M371.05,32 L371.05,37.05 L376.4,37.05 L376.4,32 L371.05,32 L371.05,31.2 L371.05,32 Z M371.05,27.7 L371.05,29.75 L371.05,27.7 Z M371.05,41.85 L371.05,43.85 L371.05,41.85 Z M371.05,44.2 L371.05,45 L376.4,45 L376.4,50.05 L377.65,50.05 L371.05,44.2 Z M371.05,41.85 L376.4,41.85 L376.4,37.05 L377.65,37.05 L371.05,41.85 Z M371.05,37.05 L371.05,41.85 L365.1,41.85 L365.1,43.85 L371.05,37.05 Z M371.05,54.85 L376.4,54.85 L376.4,50.05 L371.05,50.05 L371.05,54.85 L371.05,56.85 L371.05,54.85 Z M371.05,45 L371.05,50.05 L365.1,50.05 L365.1,54.85 L371.05,54.85 L371.05,45 Z M353.85,22.9 L352.9,22.9 L353.85,22.9 Z M359.15,17.85 L353.85,17.85 L353.85,22.9 L359.15,22.9 L359.15,17.85 L359.15,17.05 L359.15,17.85 Z M365.1,17.85 L359.15,17.85 L365.1,17.85 Z M365.1,27.7 L365.1,22.9 L359.15,22.9 L359.15,27.7 L365.1,27.7 L371.05,27.7 L365.1,27.7 Z M365.1,17.05 L365.1,17.85 L365.1,17.05 Z M337,20.85 L337,21.3 L344.7,21.3 L344.7,25.15 L345.45,25.15 L337,20.85 Z M337,21.3 L327.65,21.3 L327.65,25.35 L337,25.35 L337,21.3 L337,21.3 Z M327.65,20.7 L327.65,21.3 L318.05,21.3 L318.05,25.35 L327.65,25.35 L327.65,29.3 L337,29.3 L337,25.35 L344.7,25.35 L344.7,25.15 L327.65,20.7 Z M344.7,25.35 L344.7,29.3 L345.3,29.3 L344.7,25.35 Z M344.7,29.3 L344.7,33.35 L344.7,33.75 L345.5,33.75 L344.7,29.3 Z M344.7,29.3 L337,29.3 L337,33.35 L344.7,33.35 L344.7,29.3 Z M327.65,29.3 L327.65,33.35 L337,33.35 L337,37.15 L344.7,37.15 L344.7,33.75 L327.65,29.3 Z M337,42.3 L327.65,42.3 L327.65,46.25 L337,46.25 L337,42.3 L337,38.25 L327.65,38.25 L327.65,42.3 L318.05,42.3 L318.05,46.25 L327.65,46.25 L327.65,50.3 L337,50.3 L337,46.25 L344.7,46.25 L344.7,42.3 L337,42.3 L337,42.3 Z M327.65,37.15 L327.65,38.25 L318.05,38.25 L318.05,42.3 L309.5,42.3 L327.65,37.15 Z M309.5,46.25 L318.05,46.25 L318.05,50.3 L327.65,50.3 L327.65,54.15 L337,54.15 L337,50.3 L344.7,50.3 L344.7,46.25 L345.3,46.25 L309.5,46.25 Z M344.7,42.3 L344.7,42.1 L344.7,38.25 L337,38.25 L337,37.8 L344.7,42.3 Z M345.45,42.1 L344.7,42.1 L345.45,42.1 Z M337,37.15 L327.65,37.15 L327.65,33.35 L337,37.15 Z M327.65,37.15 L318.05,37.15 L318.05,38.25 L309.5,38.25 L327.65,37.15 Z M365.1,27.7 L365.1,29.75 L365.1,27.7 Z M359.15,27.7 L359.15,29.75 L359.15,27.7 Z M359.15,31.2 L359.15,32 L365.1,32 L365.1,31.2 L359.15,31.2 Z M359.15,32 L359.15,37.05 L365.1,37.05 L365.1,32 L371.05,32 L359.15,32 Z M359.15,32 L353.85,32 L353.85,37.05 L359.15,37.05 L359.15,41.85 L365.1,41.85 L365.1,37.05 L371.05,37.05 L359.15,32 Z M353.85,37.05 L352.9,37.05 L353.85,37.05 Z M365.1,45 L359.15,45 L359.15,50.05 L365.1,50.05 L365.1,45 L365.1,44.2 L365.1,45 Z M359.15,41.85 L359.15,43.85 L359.15,41.85 Z M359.15,44.2 L359.15,45 L353.85,45 L353.85,50.05 L359.15,50.05 L359.15,54.85 L365.1,54.85 L365.1,56.85 L359.15,44.2 Z M353.85,37.05 L353.85,41.85 L359.15,41.85 L353.85,37.05 Z M353.85,22.9 L353.85,27.7 L359.15,27.7 L353.85,22.9 Z M318.05,21.3 L309.45,21.3 L309.45,25.15 L309.45,25.35 L318.05,25.35 L318.05,29.3 L327.65,29.3 L318.05,21.3 Z M318.05,20.55 L318.05,21.3 L318.05,20.55 Z M301.65,34.8 L301.65,34.7 L301.65,31.85 L295.6,31.85 L295.6,34.8 L301.65,34.8 L301.65,37.65 L302.1,37.65 L301.65,34.8 Z M302.2,34.7 L301.65,34.7 L302.2,34.7 Z M288.35,31.45 L288.35,31.85 L295.6,31.85 L295.6,31.55 L288.35,31.45 Z M288.35,31.85 L288.35,34.8 L295.6,34.8 L295.6,37.65 L301.65,37.65 L301.65,40.6 L301.65,40.85 L302.25,40.85 L288.35,31.85 Z M295.6,37.65 L295.6,40.6 L301.65,40.6 L295.6,37.65 Z M295.6,37.65 L288.35,37.65 L288.35,40.6 L295.6,40.6 L295.6,43.35 L301.65,43.35 L301.65,40.85 L295.6,37.65 Z M288.35,43.35 L288.35,44.1 L295.6,44.1 L295.6,43.8 L288.35,43.35 Z M288.35,44.1 L288.35,47.1 L295.6,47.1 L295.6,44.1 L301.65,44.1 L301.65,46.95 L302.2,46.95 L288.35,44.1 Z M295.6,43.35 L288.35,43.35 L288.35,40.6 L295.6,43.35 Z M288.35,43.35 L280.85,43.35 L280.85,44.1 L288.35,44.1 L288.35,43.35 Z M301.65,46.95 L301.65,47.1 L295.6,47.1 L295.6,49.9 L301.65,49.9 L301.65,47.1 L301.65,46.95 Z M288.35,34.8 L288.35,37.65 L280.85,37.65 L280.85,40.6 L288.35,40.6 L288.35,34.8 Z M318.05,29.3 L318.05,33.35 L327.65,33.35 L318.05,29.3 Z M309.1,29.3 L309.45,29.3 L309.45,33.35 L318.05,33.35 L318.05,37.15 L309.45,37.15 L309.45,33.75 L308.8,33.75 L309.1,29.3 Z M309.45,33.35 L309.45,33.75 L309.45,33.35 Z M309.45,25.15 L308.7,25.15 L309.45,25.15 Z M309.45,25.35 L309.45,29.3 L318.05,29.3 L309.45,25.35 Z M318.05,50.3 L318.05,54.15 L327.65,54.15 L327.65,54.5 L318.05,50.3 Z M318.05,54.5 L318.05,54.15 L309.5,54.15 L318.05,54.5 Z M318.05,50.3 L309.5,50.3 L318.05,50.3 Z M295.6,55.6 L301.65,55.6 L301.65,53.1 L301.65,52.8 L295.6,52.8 L295.6,55.6 L288.35,55.6 L288.35,55.9 L295.6,55.6 Z M301.65,52.8 L301.65,49.9 L302.1,49.9 L301.65,52.8 Z M302.25,53.1 L301.65,53.1 L302.25,53.1 Z M295.6,52.8 L295.6,49.9 L288.35,49.9 L288.35,52.8 L295.6,52.8 L295.6,52.8 Z M288.35,52.8 L288.35,55.6 L280.85,55.6 L280.85,55.9 L288.35,52.8 Z M359.15,54.85 L359.15,56.85 L359.15,54.85 Z M352.9,50.05 L353.85,50.05 L353.85,54.85 L359.15,54.85 L352.9,50.05 Z M337,54.15 L344.7,54.15 L344.7,50.7 L344.7,50.3 L337,54.15 Z M345.5,50.7 L344.7,50.7 L345.5,50.7 Z M346.6,18.4 L307.3,18.4 L307.3,59.4 L346.6,59.4 L346.6,18.4 L346.6,18.4 Z M303.1,29.75 L272.5,29.75 L272.5,59.4 L303.1,59.4 L303.1,29.75 L303.1,29.75 Z M288.35,47.1 L288.35,49.9 L280.85,49.9 L280.85,52.8 L288.35,52.8 L288.35,47.1 Z M371.05,45 L365.1,45 L371.05,45 Z M245.6,15.55 L245.6,17.7 L250.4,17.7 L250.4,17.6 L250.4,15.55 L245.6,15.55 L239.85,15.55 L239.85,17.7 L245.6,17.7 L245.6,19.8 L250.4,19.8 L250.4,17.7 L245.6,15.55 Z M245.6,19.8 L245.6,21.9 L250.4,21.9 L250.4,19.8 L250.75,19.8 L245.6,19.8 Z M245.6,24 L250.4,24 L250.4,22.15 L250.4,21.9 L245.6,24 Z M245.6,21.9 L245.6,24 L239.85,24 L239.85,24.3 L245.6,21.9 Z M250.9,22.15 L250.4,22.15 L250.9,22.15 Z M250.85,17.6 L250.4,17.6 L250.85,17.6 Z M254.55,27.55 L253.85,27.55 L252.1,27.55 L248.3,27.55 L254.55,27.55 Z M248.3,29.35 L254.55,29.35 L254.55,28.45 L254.55,27.55 L248.3,29.35 Z M254.55,29.35 L254.55,29.95 L254.55,30.7 L254.55,29.35 Z M229.75,27.55 L230.8,27.55 L248.3,27.55 L229.75,27.55 Z M248.3,34.4 L254.55,34.4 L254.55,33.1 L254.55,32.7 L248.3,32.7 L248.3,34.4 Z M248.3,31.05 L230.8,31.05 L248.3,31.05 Z M248.3,32.7 L230.8,32.7 L248.3,32.7 Z M248.3,36.1 L254.55,36.1 L254.55,35.35 L254.55,34.65 L254.55,34.4 L248.3,36.1 Z M254.55,36.85 L254.55,36.1 L254.55,36.85 Z M254.55,32.25 L254.55,31.05 L248.3,31.05 L254.55,32.25 Z M248.3,29.35 L230.8,29.35 L248.3,29.35 Z M230.8,31.05 L224.45,31.05 L224.45,32 L224.45,32.7 L230.8,32.7 L230.8,31.05 Z M248.3,34.4 L230.8,34.4 L248.3,34.4 Z M254.55,32.7 L254.55,32.25 L254.55,32.7 Z M254.55,31.05 L254.55,30.7 L254.55,31.05 Z M248.3,39.45 L254.55,39.45 L254.55,39.25 L254.55,37.75 L248.3,37.75 L248.3,39.45 Z M248.3,41.1 L254.55,41.1 L254.55,40 L254.55,39.45 L248.3,41.1 Z M254.55,42.8 L254.55,42.4 L254.55,41.5 L254.55,41.1 L254.55,42.8 Z M248.3,42.8 L254.55,42.8 L254.55,43.9 L248.3,42.8 Z M248.3,47.8 L254.55,47.8 L254.55,47.1 L254.55,46.2 L254.55,46.15 L248.3,46.15 L248.3,47.8 Z M248.3,44.45 L230.8,44.45 L248.3,44.45 Z M248.3,46.15 L230.8,46.15 L248.3,46.15 Z M254.55,49.35 L254.55,48.6 L254.55,47.8 L254.55,49.35 Z M248.3,44.45 L254.55,44.45 L254.55,43.9 L248.3,44.45 Z M254.55,44.45 L254.55,44.7 L254.55,46.15 L254.55,44.45 Z M254.55,37.75 L254.55,36.85 L254.55,37.75 Z M248.3,37.75 L230.8,37.75 L248.3,37.75 Z M248.3,39.45 L230.8,39.45 L248.3,39.45 Z M280.85,31.35 L280.85,31.85 L288.35,31.85 L280.85,31.35 Z M280.85,31.85 L280.85,34.8 L288.35,34.8 L280.85,31.85 Z M274.2,34.7 L273.65,34.7 L274.2,34.7 Z M280.85,31.85 L274.2,31.85 L274.2,34.7 L274.2,34.8 L280.85,34.8 L280.85,37.65 L274.2,37.65 L274.2,40.6 L280.85,40.6 L280.85,43.35 L274.2,43.35 L274.2,40.85 L273.7,40.85 L280.85,31.85 Z M274.2,40.6 L274.2,40.85 L274.2,40.6 Z M274.2,37.65 L273.95,37.65 L274.2,37.65 Z M274.25,47.1 L280.85,47.1 L280.85,44.1 L274.25,44.1 L274.25,47.1 Z M274.2,34.8 L274.2,37.65 L274.2,34.8 Z M254.55,50.85 L254.55,51.2 L254.55,51.95 L254.55,50.85 Z M253.85,52.9 L252.1,52.9 L253.85,52.9 Z M229.75,52.9 L224.45,52.9 L229.75,52.9 Z M224.45,49.95 L224.45,51.2 L224.45,49.95 Z M224.45,48.3 L224.45,47.8 L224.45,47.5 L224.45,48.3 Z M224.45,44.8 L224.45,45.8 L224.45,44.8 Z M224.45,43.15 L224.45,42.8 L224.45,42.35 L224.45,43.15 Z M224.45,39.65 L224.45,40.65 L224.45,39.65 Z M224.45,38 L224.45,37.75 L224.45,37.15 L224.45,38 Z M224.45,34.5 L224.45,35.5 L224.45,34.5 Z M224.45,32.7 L224.45,32.85 L224.45,32.7 Z M233.9,15.55 L233.9,17.7 L239.85,17.7 L239.85,19.8 L245.6,19.8 L233.9,15.55 Z M233.9,15.2 L233.9,15.55 L239.85,15.55 L239.85,15.25 L233.9,15.2 Z M229.75,15.55 L228.6,15.55 L228.6,17.6 L228.6,17.7 L229.75,17.7 L229.75,15.55 Z M233.9,15.55 L229.75,15.55 L233.9,15.55 Z M228.6,17.6 L228.15,17.6 L228.6,17.6 Z M228.2,22.15 L228.6,22.15 L228.6,21.9 L228.6,19.8 L228.35,19.8 L228.2,22.15 Z M229.75,19.8 L228.6,19.8 L228.6,17.7 L229.75,19.8 Z M229.75,21.9 L228.6,21.9 L229.75,21.9 Z M228.6,22.15 L228.6,24 L229.75,24 L233.9,24 L233.9,21.9 L229.75,21.9 L228.6,22.15 Z M229.75,17.7 L233.9,17.7 L233.9,19.8 L239.85,19.8 L239.85,21.9 L245.6,21.9 L229.75,17.7 Z M233.9,19.8 L233.9,21.9 L239.85,21.9 L239.85,24 L233.9,24 L233.9,24.3 L233.9,19.8 Z M233.9,19.8 L229.75,19.8 L233.9,19.8 Z M229.75,27.55 L224.45,27.55 L224.45,27.7 L224.45,29.35 L230.8,29.35 L229.75,27.55 Z M224.45,29.35 L224.45,30.35 L224.45,31.05 L224.45,29.35 Z M224.45,34.4 L224.45,34.5 L224.45,34.4 Z M224.45,35.5 L224.45,36.1 L230.8,36.1 L224.45,35.5 Z M230.8,34.4 L224.45,34.4 L224.45,32.85 L230.8,34.4 Z M206.65,46.95 L206.65,46.85 L206.65,42.9 L196.9,42.9 L196.9,46.95 L206.65,46.95 L206.65,50.9 L207.4,50.9 L206.65,46.95 Z M207.55,46.85 L206.65,46.85 L207.55,46.85 Z M224.45,39.65 L224.45,39.45 L224.45,38 L224.45,39.65 Z M230.8,39.45 L224.45,39.45 L230.8,39.45 Z M248.3,41.1 L230.8,41.1 L248.3,41.1 Z M224.45,40.65 L224.45,41.1 L230.8,41.1 L224.45,40.65 Z M248.3,42.8 L230.8,42.8 L248.3,42.8 Z M224.45,41.1 L224.45,42.35 L224.45,41.1 Z M224.45,44.45 L224.45,44.8 L224.45,44.45 Z M224.45,45.8 L224.45,46.15 L230.8,46.15 L224.45,45.8 Z M248.3,47.8 L230.8,47.8 L248.3,47.8 Z M248.3,49.5 L254.55,49.5 L254.55,49.35 L248.3,49.5 Z M224.45,46.15 L224.45,47.5 L224.45,46.15 Z M224.45,43.15 L224.45,44.45 L230.8,44.45 L224.45,43.15 Z M230.8,42.8 L224.45,42.8 L230.8,42.8 Z M224.45,36.1 L224.45,37.15 L224.45,36.1 Z M230.8,37.75 L224.45,37.75 L230.8,37.75 Z M230.8,47.8 L224.45,47.8 L230.8,47.8 Z M248.3,51.2 L230.8,51.2 L248.3,51.2 Z M248.3,49.5 L230.8,49.5 L248.3,49.5 Z M248.3,52.9 L230.8,52.9 L248.3,52.9 Z M254.55,51.2 L248.3,51.2 L254.55,51.2 Z M230.8,52.9 L229.75,52.9 L230.8,52.9 Z M224.45,49.5 L224.45,49.95 L224.45,49.5 Z M224.45,52.9 L224.45,51.2 L230.8,51.2 L224.45,52.9 Z M196.9,54.95 L196.9,58.85 L206.65,58.85 L206.65,55.35 L206.65,54.95 L196.9,54.95 L196.9,50.9 L196.9,46.95 L185.25,46.95 L173.1,46.95 L173.1,50.9 L173.1,54.95 L173.1,58.85 L196.9,58.85 L196.9,54.95 Z M206.65,54.95 L206.65,50.9 L196.9,50.9 L206.65,54.95 Z M207.65,55.35 L206.65,55.35 L207.65,55.35 Z M230.8,49.5 L224.45,49.5 L224.45,48.3 L230.8,49.5 Z M280.85,52.8 L280.85,55.6 L274.25,55.6 L280.85,52.8 Z M280.85,49.9 L274.25,49.9 L280.85,49.9 Z M280.85,52.8 L274.25,52.8 L280.85,52.8 Z M254.55,50.85 L254.55,49.5 L254.55,50.85 Z M254.55,51.95 L254.55,52.9 L253.85,52.9 L254.55,51.95 Z M252.1,52.9 L248.3,52.9 L252.1,52.9 Z M288.35,47.1 L280.85,47.1 L280.85,49.9 L288.35,47.1 Z M248.3,36.1 L230.8,36.1 L248.3,36.1 Z M173.1,42.15 L173.1,42.9 L185.25,42.9 L185.25,42.3 L173.1,42.15 Z M173.1,42.9 L173.1,46.95 L162.35,46.95 L162.35,50.9 L173.1,50.9 L173.1,42.9 Z M196.9,42.9 L185.25,42.9 L185.25,46.95 L196.9,42.9 Z M196.9,42.45 L196.9,42.9 L196.9,42.45 Z M149.15,19.7 L149.15,13.4 L142.3,13.4 L142.3,19.7 L149.15,19.7 L149.95,19.7 L149.15,19.7 Z M142.3,12.65 L142.3,13.4 L135.15,13.4 L135.15,19.7 L142.3,19.7 L142.3,26.15 L149.15,26.15 L149.15,19.7 L142.3,12.65 Z M142.3,26.15 L142.3,32.8 L149.15,32.8 L149.15,26.15 L149.95,26.15 L142.3,26.15 Z M142.3,32.8 L142.3,34.1 L142.3,32.8 Z M135.15,26.15 L135.15,32.8 L142.3,32.8 L135.15,26.15 Z M134.25,26.15 L135.15,26.15 L142.3,26.15 L134.25,26.15 Z M135.15,19.7 L135.15,26.15 L135.15,19.7 Z M127.3,45.75 L134.35,45.75 L134.35,42.6 L127.3,42.6 L127.3,45.75 Z M133.25,42.35 L133.25,10.25 L150.85,10.25 L150.85,42.35 L150.05,42.35 L150.05,42.6 L156.5,42.6 L156.5,45.6 L157.1,45.6 L133.25,42.35 Z M127.3,48.75 L134.35,48.75 L134.35,45.75 L142.35,45.75 L142.35,42.6 L134.35,42.6 L134.35,42.35 L133.25,42.35 L127.3,48.75 Z M150.05,42.35 L142.35,42.35 L142.35,42.6 L150.05,42.6 L150.05,45.75 L156.5,45.75 L156.5,45.6 L150.05,42.35 Z M150.05,45.75 L142.35,45.75 L142.35,48.75 L150.05,48.75 L150.05,45.75 L150.05,45.75 Z M134.35,42.35 L142.35,42.35 L134.35,42.35 Z M134.35,48.75 L134.35,51.85 L142.35,51.85 L142.35,48.75 L134.35,48.75 L134.35,48.75 Z M146.1,35.25 L137.35,35.25 L137.35,41.7 L146.1,41.7 L146.1,35.25 L146.1,35.25 Z M173.1,42.9 L162.35,42.9 L162.35,46.85 L162.35,46.95 L173.1,42.9 Z M156.5,45.75 L156.5,48.75 L157,48.75 L156.5,45.75 Z M156.5,48.75 L156.5,51.85 L156.5,52.15 L157.15,52.15 L156.5,48.75 Z M162.35,46.85 L161.45,46.85 L162.35,46.85 Z M156.5,48.75 L150.05,48.75 L150.05,51.85 L156.5,51.85 L156.5,48.75 Z M150.05,54.8 L156.5,54.8 L156.5,52.15 L150.05,54.8 Z M162.35,54.95 L162.35,55.35 L162.35,58.85 L173.1,58.85 L162.35,54.95 Z M162.35,50.9 L162.35,54.95 L173.1,54.95 L162.35,50.9 Z M162.35,55.35 L161.5,55.35 L162.35,55.35 Z M162.35,50.9 L161.9,50.9 L162.35,50.9 Z M150.05,51.85 L150.05,54.8 L142.35,54.8 L142.35,55.1 L150.05,51.85 Z M134.35,54.8 L142.35,54.8 L142.35,51.85 L150.05,51.85 L134.35,54.8 Z M134.35,55.1 L134.35,54.8 L134.35,51.85 L134.35,55.1 Z M127.3,54.8 L134.35,54.8 L127.3,54.8 Z M134.35,51.85 L127.3,51.85 L134.35,51.85 Z M100.6,16.3 L100.6,12.8 L104.55,12.8 L104.55,16.3 L107.1,16.3 L107.1,12.8 L114.8,12.8 L114.8,11.85 L100.6,16.3 Z M104.55,20.05 L104.55,23.85 L107.1,23.85 L107.1,20.05 L104.55,20.05 L104.55,16.3 L100.6,16.3 L100.6,20.05 L104.55,20.05 L104.55,20.05 Z M107.1,20.05 L107.1,16.3 L114.8,16.3 L114.8,12.8 L122.1,12.8 L122.1,16.3 L123.2,16.3 L123.2,8.65 L99.35,8.65 L99.35,48.05 L123.2,48.05 L123.2,40.8 L122.1,40.8 L122.1,44.4 L122.1,44.9 L107.1,20.05 Z M122.1,20.05 L114.8,20.05 L114.8,23.85 L122.1,23.85 L122.1,20.05 L122.1,16.3 L114.8,16.3 L114.8,20.05 L107.1,20.05 L122.1,20.05 Z M122.1,20.05 L123.2,20.05 L123.2,16.3 L122.1,20.05 Z M122.1,23.85 L123.2,23.85 L123.2,20.05 L122.1,23.85 Z M107.1,23.85 L114.8,23.85 L114.8,27.6 L122.1,27.6 L122.1,23.85 L107.1,23.85 Z M91.85,4 L91.85,0.45 L88.5,0.45 L88.5,4 L91.85,4 L91.85,7.85 L88.5,7.85 L84.75,7.85 L81,7.85 L77.25,7.85 L73.55,7.85 L69.8,7.85 L66.05,7.85 L62.3,7.85 L58.55,7.85 L58.55,4 L58.55,0.45 L62.3,0.45 L66.05,0.45 L69.8,0.45 L73.55,0.45 L77.25,0.45 L81,0.45 L84.75,0.45 L88.5,0.45 L91.85,4 Z M84.75,0.45 L84.75,4 L88.5,4 L88.5,7.85 L84.75,0.45 Z M84.75,4 L84.75,7.85 L84.75,4 Z M63.1,12.6 L63.1,15.25 L93.2,15.25 L93.2,12.6 L63.1,12.6 L63.1,9.9 L93.2,9.9 L93.2,12.6 L63.1,12.6 Z M88.5,17.4 L84.75,17.4 L84.75,20.95 L88.5,20.95 L88.5,17.4 L91.85,17.4 L91.85,20.95 L91.85,24.8 L88.5,24.8 L84.75,24.8 L81,24.8 L77.25,24.8 L73.55,24.8 L69.8,24.8 L66.05,24.8 L62.3,24.8 L58.55,24.8 L58.55,20.95 L58.55,17.4 L62.3,17.4 L66.05,17.4 L69.8,17.4 L73.55,17.4 L77.25,17.4 L81,17.4 L84.75,17.4 L88.5,17.4 Z M91.85,20.95 L88.5,20.95 L88.5,24.8 L91.85,20.95 Z M100.15,20.05 L100.6,20.05 L100.6,23.85 L104.55,23.85 L104.55,27.6 L107.1,27.6 L107.1,23.85 L100.15,20.05 Z M100.15,16.3 L100.6,16.3 L100.15,16.3 Z M100.15,23.85 L100.6,23.85 L100.6,27.6 L104.55,27.6 L104.55,29.5 L107.1,29.5 L107.1,27.6 L114.8,27.6 L114.8,29.5 L122.1,29.5 L122.1,27.6 L123.2,27.6 L123.2,23.85 L100.15,23.85 Z M100.15,27.6 L100.6,27.6 L100.6,29.5 L104.55,29.5 L104.55,33.25 L107.1,33.25 L107.1,29.5 L114.8,29.5 L114.8,33.25 L122.1,33.25 L122.1,29.5 L123.2,29.5 L123.2,27.6 L100.15,27.6 Z M100.15,33.25 L100.6,33.25 L100.6,29.5 L100.15,29.5 L100.15,33.25 Z M100.15,37 L100.6,37 L100.6,33.25 L104.55,33.25 L104.55,37 L107.1,37 L107.1,33.25 L114.8,33.25 L114.8,37 L122.1,37 L122.1,33.25 L123.2,33.25 L123.2,29.5 L100.15,37 Z M61.85,58.05 L63.25,58.05 L63.75,58.05 L64.2,58.05 L64.2,51.95 L64.2,50 L61.85,58.05 Z M91.55,50 L91.55,51.95 L94.45,51.95 L91.55,50 Z M88.5,34.25 L84.75,34.25 L84.75,37.75 L88.5,37.75 L88.5,34.25 L91.85,34.25 L91.85,37.75 L91.85,41.65 L88.5,34.25 Z M94.7,49.95 L94.7,58.25 L93.15,58.25 L92.7,58.25 L91.55,58.25 L90.25,58.25 C90.0833333,58.2166667 89.9166667,58.2 89.75,58.2 L89.3,58.2 L88.15,58.2 L94.7,49.95 Z M87.15,58.15 L85.7,58.15 L83.8,58.15 L83.3,58.15 L79.8,58.15 L79.75,58.15 L77.45,58.15 L76.05,58.15 L73.2,58.15 C73.1,58.1166667 73.0166667,58.1166667 72.95,58.15 L72.8,58.15 L87.15,58.15 Z M71.7,58.1 L71.2,58.1 L68.35,58.1 L68,58.1 L65.15,58.1 C65.05,58.0666667 64.9666667,58.0666667 64.9,58.1 L64.7,58.1 L71.7,58.1 Z M93.2,29.55 L93.2,26.85 L63.1,26.85 L63.1,29.55 L93.2,29.55 L93.2,32.2 L63.1,32.2 L63.1,29.55 L93.2,29.55 Z M88.5,37.75 L88.5,41.65 L91.85,41.65 L88.5,37.75 Z M88.5,41.65 L84.75,41.65 L84.75,37.75 L88.5,41.65 Z M84.75,41.65 L81,41.65 L77.25,41.65 L73.55,41.65 L69.8,41.65 L66.05,41.65 L62.3,41.65 L61.85,41.65 L84.75,41.65 Z M63.1,46.4 L63.1,49 L93.2,49 L93.2,46.4 L63.1,46.4 L63.1,43.65 L93.2,43.65 L93.2,46.4 L63.1,46.4 Z M91.85,37.75 L88.5,37.75 L91.85,37.75 Z M100.15,40.8 L100.6,40.8 L100.6,37 L104.55,37 L104.55,40.8 L107.1,40.8 L107.1,37 L114.8,37 L114.8,40.8 L122.1,40.8 L122.1,37 L123.2,37 L123.2,33.25 L100.15,40.8 Z M100.6,44.9 L100.6,40.8 L104.55,40.8 L104.55,44.9 L104.55,45.35 L100.6,44.9 Z M100.6,45.35 L100.6,44.9 L104.55,44.9 L100.6,45.35 Z M107.1,44.4 L107.1,40.8 L114.8,40.8 L114.8,44.4 L122.1,44.4 L107.1,44.4 Z M107.1,44.9 L107.1,44.4 L114.8,44.4 L114.8,46.6 L107.1,44.9 Z M123.2,37 L123.2,40.8 L123.2,37 Z M84.75,20.95 L84.75,24.8 L84.75,20.95 Z M81,0.45 L81,4 L84.75,4 L81,0.45 Z M77.25,0.45 L77.25,4 L81,4 L81,7.85 L77.25,0.45 Z M73.55,0.45 L73.55,4 L77.25,4 L77.25,7.85 L73.55,0.45 Z M73.55,4 L73.55,7.85 L73.55,4 Z M69.8,7.85 L69.8,4 L66.05,4 L66.05,7.85 L69.8,7.85 Z M66.05,0.45 L66.05,4 L62.3,4 L62.3,7.85 L66.05,0.45 Z M69.8,0.45 L69.8,4 L73.55,4 L69.8,0.45 Z M69.8,24.8 L69.8,20.95 L66.05,20.95 L66.05,24.8 L69.8,24.8 Z M69.8,17.4 L69.8,20.95 L73.55,20.95 L73.55,17.4 L69.8,17.4 Z M66.05,17.4 L66.05,20.95 L62.3,20.95 L62.3,24.8 L66.05,17.4 Z M81,24.8 L81,20.95 L77.25,20.95 L77.25,24.8 L81,24.8 Z M77.25,20.95 L73.55,20.95 L73.55,24.8 L77.25,20.95 Z M77.25,17.4 L77.25,20.95 L77.25,17.4 Z M81,17.4 L81,20.95 L84.75,20.95 L81,17.4 Z M58.55,4 L62.3,4 L62.3,0.45 L58.55,4 Z M62.3,17.4 L62.3,20.95 L58.55,20.95 L62.3,17.4 Z M62.3,37.75 L62.3,34.25 L58.55,34.25 L58.55,34.65 L62.3,37.75 Z M58.55,38.4 L58.55,37.75 L58.55,36.35 L58.55,38.4 Z M58.55,37.75 L62.3,37.75 L66.05,37.75 L66.05,34.25 L62.3,34.25 L58.55,37.75 Z M58.55,40.1 L58.55,41.65 L60.4,41.65 L58.55,40.1 Z M62.3,37.75 L62.3,41.65 L62.3,37.75 Z M77.25,34.25 L73.55,34.25 L73.55,37.75 L77.25,37.75 L77.25,34.25 L81,34.25 L84.75,34.25 L77.25,34.25 Z M66.05,37.75 L69.8,37.75 L69.8,34.25 L66.05,34.25 L66.05,37.75 Z M73.55,41.65 L73.55,37.75 L69.8,37.75 L69.8,41.65 L73.55,41.65 Z M66.05,37.75 L66.05,41.65 L66.05,37.75 Z M84.75,37.75 L81,37.75 L81,41.65 L84.75,37.75 Z M81,37.75 L77.25,37.75 L77.25,41.65 L81,37.75 Z M81,34.25 L81,37.75 L81,34.25 Z M73.55,34.25 L69.8,34.25 L73.55,34.25 Z M79.8,50 L79.8,51.95 L83.8,51.95 L83.8,50 L79.8,50 Z M76.05,50 L76.05,51.95 L79.8,51.95 L79.8,58.15 L76.05,50 Z M76.05,51.95 L76.05,58.15 L76.05,51.95 Z M72.25,50 L72.25,51.95 L76.05,51.95 L72.25,50 Z M68,50 L68,51.95 L72.25,51.95 L72.25,58.1 L72.8,58.15 L68,50 Z M68,58.1 L68,51.95 L64.2,51.95 L68,58.1 Z M64.7,58.1 L64.2,58.05 L64.7,58.1 Z M72.25,58.1 L71.7,58.1 L72.25,58.1 Z M87.65,50 L87.65,51.95 L91.55,51.95 L91.55,58.25 L87.65,50 Z M87.65,58.15 L87.65,51.95 L83.8,51.95 L83.8,58.15 L87.65,58.15 Z M88.15,58.2 L87.65,58.15 L87.15,58.15 L88.15,58.2 Z M2.5,38.1 L2.5,32.15 L8.9,32.15 L8.9,31.45 L2.5,38.1 Z M2.5,44.15 L8.9,44.15 L8.9,38.1 L2.5,38.1 L2.5,44.15 L2.5,50.4 L8.9,50.4 L8.9,44.15 L15.6,44.15 L15.6,38.1 L8.9,38.1 L8.9,32.15 L15.6,32.15 L15.6,38.1 L2.5,44.15 Z M15.6,44.15 L16.45,44.15 L15.6,44.15 Z M5.35,52.75 L13.55,52.75 L13.55,58.8 L5.35,58.8 L5.35,52.75 L5.35,52.75 Z M8.9,50.4 L8.9,51.65 L8.9,50.4 Z M15.6,44.15 L15.6,50.4 L8.9,50.4 L15.6,44.15 Z M0.9,29.2 L17.4,29.2 L17.4,59.4 L0.9,59.4 L0.9,29.2 L0.9,29.2 Z M1.75,38.1 L2.5,38.1 L1.75,38.1 Z M1.75,44.15 L2.5,44.15 L1.75,44.15 Z" id="Layer0_0_MEMBER_0_3_STROKES"></path>
            </g>
            <g id="Layer0_0_MEMBER_0_4_STROKES-link" transform="translate(248.000000, 0.000000)" stroke="#DDDDDD">
                <path d="M58.5,13.7 L59.5,14.15 M48.95,9.55 L50.4,10.15 L53.75,11.65 L55.1,12.2 L58.5,13.7 M48.95,9.55 L47.1,8.75 L43.15,6.95 M19.75,14 L19.75,0.05 L1.65,8.25 L0.95,59.15 L19.75,59.15 M42.1,59.15 L60.9,59.15 L60.25,13.15 L42.1,5.7 L42.1,25.35 M42.1,27.55 L42.1,27.5 M19.75,27.55 L19.75,27.5 M42.1,52.95 L42.1,52.9 M19.75,52.95 L19.75,52.9 M14.75,3.35 L12.9,4.25 L11.45,4.95 M8.15,6.6 L6.75,7.25 M3.4,8.85 L2.35,9.35 M19.75,17.7 L19.75,15.55 M19.75,24 L19.75,21.9 L19.75,19.8 L19.75,17.7 M11.45,4.95 L8.15,6.6 M6.75,7.25 L3.4,8.85 M18.7,1.45 L14.75,3.35 M42.1,58 L42.1,53.9" id="Layer0_0_MEMBER_0_4_STROKES"></path>
            </g>
        </g>
    </g>
</svg>